<?xml version="1.0" encoding="UTF-8" standalone="no"?>
<!-- Created with Inkscape (http://www.inkscape.org/) -->

<svg
   version="1.1"
   id="svg1"
   width="567.33466"
   height="151.43536"
   viewBox="0 0 567.33465 151.43536"
   xmlns="http://www.w3.org/2000/svg"
   xmlns:svg="http://www.w3.org/2000/svg">
  <defs
     id="defs1" />
  <g
     id="g1"
     transform="translate(-5.000015e-4,-0.01080712)">
    <path
       id="path1"
       d="m 1.4651719,-6.3644531 v 5.89453122 H 0.38704687 v 0.46875 H 4.6878281 c 1.9570313,0 3.4453125,-1.23046872 3.4453125,-3.35156252 0,-2.1914062 -1.4882812,-3.4804687 -3.4570312,-3.4804687 H 0.38704687 v 0.46875 z m 1.359375,5.89453122 V -6.3644531 h 1.453125 c 0.65625,0 1.4765625,0.1875 1.96875,0.8789062 0.3515625,0.515625 0.4335937,1.1953125 0.4335937,2.1210938 0,1.078125 -0.1289062,1.6054687 -0.4453125,2.0625 -0.4804687,0.66796872 -1.3476562,0.83203122 -1.9570312,0.83203122 z m 8.1884761,-4.01953122 -1.7226558,0.082031 v 0.46875 c 0.5859375,0 0.65625,0 0.65625,0.3867188 v 3.08203122 H 9.2552109 v 0.46875 c 0.3046875,-0.01171875 0.7968751,-0.03515625 1.2187501,-0.03515625 0.292969,0 0.808594,0.0234375 1.160156,0.03515625 v -0.46875 h -0.621094 z m 0.105469,-1.6523438 c 0,-0.4453125 -0.363281,-0.7851562 -0.773437,-0.7851562 -0.4335941,0 -0.7851566,0.3515625 -0.7851566,0.7851562 0,0.421875 0.3515625,0.7734375 0.7851566,0.7734375 0.410156,0 0.773437,-0.3398437 0.773437,-0.7734375 z m 2.947266,3.2109375 c -0.363281,-0.070312 -1.007813,-0.1757812 -1.007813,-0.6445312 0,-0.6210938 0.925782,-0.6210938 1.113282,-0.6210938 0.75,0 1.125,0.2929688 1.171875,0.84375 0.01172,0.140625 0.02344,0.1992188 0.234375,0.1992188 0.234375,0 0.234375,-0.058594 0.234375,-0.28125 v -0.796875 c 0,-0.1875 0,-0.28125 -0.175782,-0.28125 -0.04687,0 -0.05859,0 -0.445312,0.1875 -0.269531,-0.1289063 -0.609375,-0.1875 -1.007813,-0.1875 -0.304687,0 -1.839843,0 -1.839843,1.3007812 0,0.3984375 0.199218,0.6679688 0.398437,0.84375 0.398438,0.3398438 0.785156,0.4101563 1.546875,0.5390625 0.363281,0.070312 1.101563,0.1992188 1.101563,0.7851563 0,0.73828122 -0.914063,0.73828122 -1.125,0.73828122 -1.066407,0 -1.324219,-0.72656252 -1.441407,-1.14843752 -0.04687,-0.140625 -0.09375,-0.140625 -0.234375,-0.140625 -0.246093,0 -0.246093,0.058594 -0.246093,0.2929688 v 1.07812497 c 0,0.1875 0,0.28125 0.1875,0.28125 0.07031,0 0.08203,0 0.292968,-0.15234375 0.01172,0 0.234375,-0.140625 0.257813,-0.1640625 0.457031,0.31640625 0.984375,0.31640625 1.183594,0.31640625 0.304687,0 1.839843,0 1.839843,-1.45312497 0,-0.4335938 -0.199218,-0.7734375 -0.550781,-1.0546875 -0.386719,-0.2929688 -0.703125,-0.3515625 -1.488281,-0.4804688 z m 3.251953,-1.4765625 v 0.46875 c 0.164062,0 0.386719,0 0.527344,0.023437 0.222656,0.035156 0.222656,0.1640625 0.222656,0.375 v 3.96093752 c 0,0.4921875 -0.152344,1.20703128 -0.75,1.20703128 -0.152344,0 -0.234375,-0.011719 -0.386719,-0.058594 0.1875,-0.140625 0.246094,-0.3398437 0.246094,-0.4921875 0,-0.35156248 -0.257813,-0.62109373 -0.621094,-0.62109373 -0.375,0 -0.632812,0.26953125 -0.632812,0.63281253 0,0.5625 0.597656,0.9023437 1.417968,0.9023437 0.855469,0 1.804688,-0.515625 1.804688,-1.57031248 V -4.4894531 Z m 1.828125,-1.734375 c 0,-0.4335937 -0.351563,-0.7851562 -0.773438,-0.7851562 -0.433593,0 -0.785156,0.3515625 -0.785156,0.7851562 0,0.421875 0.351563,0.7734375 0.785156,0.7734375 0.421875,0 0.773438,-0.3515625 0.773438,-0.7734375 z M 25.389,-2.1691406 c 0,-1.3359375 -0.914063,-2.34375 -2.542969,-2.34375 -1.628906,0 -2.542969,1.0195312 -2.542969,2.34375 0,1.23046872 0.878907,2.22656247 2.542969,2.22656247 1.675781,0 2.542969,-1.0078125 2.542969,-2.22656247 z m -2.542969,1.82812497 c -1.265625,0 -1.265625,-1.07812497 -1.265625,-1.94531247 0,-0.4453125 0,-0.9492188 0.164063,-1.2890625 0.199218,-0.375 0.609375,-0.5742188 1.101562,-0.5742188 0.421875,0 0.832031,0.1523438 1.054688,0.5039063 0.210937,0.3398437 0.210937,0.890625 0.210937,1.359375 0,0.8671875 0,1.94531247 -1.265625,1.94531247 z m 5.097656,-4.14843747 -1.722656,0.082031 v 0.46875 c 0.585938,0 0.65625,0 0.65625,0.3867188 v 3.08203122 h -0.691406 v 0.46875 c 0.304687,-0.01171875 0.796875,-0.03515625 1.21875,-0.03515625 0.292969,0 0.808594,0.0234375 1.160156,0.03515625 v -0.46875 h -0.621094 z m 0.105469,-1.6523438 c 0,-0.4453125 -0.363281,-0.7851562 -0.773437,-0.7851562 -0.433594,0 -0.785157,0.3515625 -0.785157,0.7851562 0,0.421875 0.351563,0.7734375 0.785157,0.7734375 0.410156,0 0.773437,-0.3398437 0.773437,-0.7734375 z m 1.986328,2.5898438 v 3.08203122 h -0.691406 v 0.46875 c 0.28125,-0.01171875 0.878906,-0.03515625 1.253906,-0.03515625 0.398438,0 0.984375,0.0234375 1.253907,0.03515625 v -0.46875 H 31.172203 V -2.5558594 c 0,-1.078125 0.855469,-1.5703125 1.476563,-1.5703125 0.339843,0 0.550781,0.2109375 0.550781,0.9726563 v 2.68359372 h -0.679688 v 0.46875 c 0.269532,-0.01171875 0.867188,-0.03515625 1.253907,-0.03515625 0.386718,0 0.972656,0.0234375 1.253906,0.03515625 v -0.46875 H 34.336266 V -3.0480469 c 0,-1.0429687 -0.539063,-1.4414062 -1.535157,-1.4414062 -0.949218,0 -1.476562,0.5742187 -1.746093,1.078125 v -1.078125 l -1.710938,0.082031 v 0.46875 c 0.621094,0 0.691406,0 0.691406,0.386719 z m 5.941407,-0.3984375 v 2.71875 c 0,1.06640622 0.867187,1.28906247 1.570312,1.28906247 0.75,0 1.207031,-0.5625 1.207031,-1.28906247 v -0.5273438 h -0.46875 v 0.5039063 c 0,0.67968747 -0.316406,0.91406247 -0.597656,0.91406247 -0.585937,0 -0.585937,-0.6328125 -0.585937,-0.86718747 v -2.7421875 h 1.464843 v -0.46875 h -1.464843 v -1.9101563 h -0.457032 c -0.01172,0.9960938 -0.503906,1.9804688 -1.488281,2.015625 v 0.3632813 z m 0,0"
       style="fill:#000000;fill-opacity:1;fill-rule:nonzero;stroke:none"
       aria-label="Disjoint"
       transform="matrix(1.3333333,0,0,1.3333333,106.148,18.4)" />
    <path
       id="path2"
       d="m 85.04042,56.69362 c 0,15.6557 -12.6911,28.3468 -28.3468,28.3468 -15.65572,0 -28.34682,-12.6911 -28.34682,-28.3468 0,-15.65572 12.6911,-28.34682 28.34682,-28.34682 15.6557,0 28.3468,12.6911 28.3468,28.34682 z"
       style="fill:#fffbb3;fill-opacity:1;fill-rule:nonzero;stroke:#000000;stroke-width:0.3985;stroke-linecap:butt;stroke-linejoin:miter;stroke-miterlimit:10;stroke-dasharray:none;stroke-opacity:1"
       transform="matrix(1.3333333,0,0,-1.3333333,0.13333333,151.31333)" />
    <path
       id="path3"
       d="M 3.962125,-6.9376094 C 3.91525,-7.0665156 3.8918125,-7.1368281 3.7394688,-7.1368281 c -0.1640625,0 -0.1875,0.058594 -0.2460938,0.1992187 l -2.0625,5.96484377 c -0.1757812,0.50390625 -0.57421875,0.65625 -1.11328125,0.66796875 v 0.304687505 c 0.234375,-0.011718755 0.65625,-0.035156255 1.01953125,-0.035156255 0.3046875,0 0.8203125,0.0234375 1.1484375,0.035156255 V -0.30479688 c -0.5039062,0 -0.75,-0.2578125 -0.75,-0.515625 0,-0.0234375 0.011719,-0.12890625 0.023437,-0.140625 L 2.2160313,-2.2735469 h 2.4609375 l 0.5273437,1.52343752 c 0.011719,0.046875 0.023437,0.10546875 0.023437,0.140625 0,0.3046875 -0.5507812,0.3046875 -0.8203125,0.3046875 V -1.09375e-4 C 4.759,-0.03526563 5.462125,-0.03526563 5.837125,-0.03526563 c 0.4335938,0 0.890625,0.01171875 1.3007813,0.035156255 V -0.30479688 H 6.962125 c -0.5976562,0 -0.7382812,-0.0703125 -0.84375,-0.3984375 z m -0.5273437,1.125 1.125,3.234375 H 2.3215 Z m 0,0"
       style="fill:#000000;fill-opacity:1;fill-rule:nonzero;stroke:none"
       aria-label="A"
       transform="matrix(1.3333333,0,0,1.3333333,34.154667,44.117333)" />
    <path
       id="path4"
       d="m 170.08086,56.69362 c 0,15.6557 -12.6911,28.3468 -28.34682,28.3468 -15.65572,0 -28.3468,-12.6911 -28.3468,-28.3468 0,-15.65572 12.69108,-28.34682 28.3468,-28.34682 15.65572,0 28.34682,12.6911 28.34682,28.34682 z"
       style="fill:#fffbb3;fill-opacity:1;fill-rule:nonzero;stroke:#000000;stroke-width:0.3985;stroke-linecap:butt;stroke-linejoin:miter;stroke-miterlimit:10;stroke-dasharray:none;stroke-opacity:1"
       transform="matrix(1.3333333,0,0,-1.3333333,0.13333333,151.31333)" />
    <path
       id="path5"
       d="m 2.2151563,-3.6446406 v -2.4492188 c 0,-0.328125 0.011719,-0.3984375 0.4804687,-0.3984375 h 1.2421875 c 0.9609375,0 1.3125,0.84375 1.3125,1.3710938 0,0.6328125 -0.4921875,1.4765625 -1.59375,1.4765625 z m 2.34375,0.09375 C 5.5315625,-3.7501094 6.21125,-4.3829219 6.21125,-5.1212031 c 0,-0.8671875 -0.9140625,-1.6875 -2.203125,-1.6875 H 0.36359375 v 0.3164062 h 0.234375 c 0.76171875,0 0.78515625,0.1054688 0.78515625,0.46875 v 5.25000002 c 0,0.3515625 -0.023437,0.46875 -0.78515625,0.46875 h -0.234375 V -1.09375e-4 H 4.2659375 c 1.3242188,0 2.2148438,-0.890625005 2.2148438,-1.828125025 0,-0.8671875 -0.8085938,-1.6054687 -1.921875,-1.7226562 z m -0.609375,3.24609372 H 2.695625 c -0.46875,0 -0.4804687,-0.0703125 -0.4804687,-0.3984375 V -3.4219844 h 1.875 c 0.984375,0 1.3945312,0.9257813 1.3945312,1.59375 0,0.703125 -0.515625,1.52343752 -1.5351562,1.52343752 z m 0,0"
       style="fill:#000000;fill-opacity:1;fill-rule:nonzero;stroke:none"
       aria-label="B"
       transform="matrix(1.3333333,0,0,1.3333333,148.09333,44.117333)" />
    <path
       id="path6"
       d="m 7.9577578,-3.3761719 c 0,-2.15625 -1.4414062,-3.5625 -3.65625,-3.5625 -2.2734375,0 -3.66796874,1.4648438 -3.66796874,3.5625 0,2.0625 1.39453124,3.48046877 3.65625004,3.48046877 2.296875,0 3.6679687,-1.44140627 3.6679687,-3.48046877 z m -3.6679687,3.07031252 c -0.5859375,0 -1.3125,-0.28125 -1.7226563,-1.04296872 -0.328125,-0.609375 -0.4101562,-1.3242188 -0.4101562,-2.1796875 0,-0.6328125 0.035156,-1.4882813 0.46875,-2.15625 0.4101562,-0.609375 1.078125,-0.8554688 1.6640625,-0.8554688 0.6445312,0 1.3242187,0.2695313 1.7226562,0.9257813 0.3867188,0.6445312 0.421875,1.40625 0.421875,2.0859375 0,0.703125 -0.035156,1.5820312 -0.4570312,2.2734375 -0.4453125,0.72656247 -1.1484375,0.94921872 -1.6875,0.94921872 z M 13.647211,-3.7511719 c 0.05859,-0.140625 0.105469,-0.1992187 0.738281,-0.1992187 v -0.46875 c -0.246094,0.011719 -0.539062,0.023437 -0.785156,0.023437 -0.246094,0 -0.703125,-0.023437 -0.902344,-0.023437 v 0.46875 c 0.1875,0 0.46875,0.023437 0.46875,0.1054687 0,0.011719 -0.01172,0.023437 -0.04687,0.1171875 l -1.160156,2.4960938 -1.253906,-2.71875 h 0.527343 v -0.46875 c -0.328125,0.011719 -1.21875,0.023437 -1.230468,0.023437 -0.2812503,0 -0.7265628,-0.023437 -1.1367191,-0.023437 v 0.46875 h 0.6445313 l 1.7343748,3.73828122 c 0.117188,0.24609375 0.257813,0.24609375 0.386719,0.24609375 0.164062,0 0.269531,-0.0234375 0.363281,-0.234375 z m 5.291016,1.5820313 c 0.210937,0 0.316406,0 0.316406,-0.2695313 0,-0.3164062 -0.05859,-1.0429687 -0.5625,-1.5351562 -0.363281,-0.3632813 -0.890625,-0.5390625 -1.582031,-0.5390625 -1.59375,0 -2.460938,1.0195312 -2.460938,2.2734375 0,1.33593747 0.996094,2.29687497 2.601563,2.29687497 1.570312,0 2.003906,-1.0546875 2.003906,-1.21874997 0,-0.1875 -0.1875,-0.1875 -0.234375,-0.1875 -0.175781,0 -0.199219,0.046875 -0.257813,0.2109375 -0.210937,0.48046872 -0.773437,0.79687497 -1.417968,0.79687497 -1.40625,0 -1.417969,-1.32421877 -1.417969,-1.82812497 z m -3.011719,-0.328125 c 0.02344,-0.3984375 0.03516,-0.8085938 0.234375,-1.1367188 0.269531,-0.3984375 0.667969,-0.515625 0.949219,-0.515625 1.171875,0 1.183593,1.3007813 1.195312,1.6523438 z m 5.686523,-0.8554688 v -1.1367187 l -1.664062,0.082031 v 0.46875 c 0.621093,0 0.691406,0 0.691406,0.3867188 v 3.08203122 h -0.691406 v 0.46875 c 0.351562,-0.01171875 0.796875,-0.03515625 1.265625,-0.03515625 0.375,0 1.007812,0 1.371093,0.03515625 v -0.46875 H 21.7185 V -2.2160156 c 0,-0.6914063 0.246094,-1.9101563 1.242187,-1.9101563 -0.01172,0.011719 -0.1875,0.1757813 -0.1875,0.4570313 0,0.4101562 0.316407,0.609375 0.609375,0.609375 0.292969,0 0.609375,-0.2109375 0.609375,-0.609375 0,-0.5273438 -0.539062,-0.8203125 -1.054687,-0.8203125 -0.703125,0 -1.101563,0.5039062 -1.324219,1.1367187 z m 4.916016,-3.5625 -1.757813,0.082031 v 0.46875 c 0.621094,0 0.691407,0 0.691407,0.3867187 v 5.50781252 h -0.691407 v 0.46875 c 0.316407,-0.01171875 0.796875,-0.03515625 1.230469,-0.03515625 0.421875,0 0.878906,0.0234375 1.21875,0.03515625 v -0.46875 h -0.691406 z m 4.68457,6.15234377 c 0,0.3046875 0,0.76171875 1.03125,0.76171875 h 0.480469 c 0.199219,0 0.316406,0 0.316406,-0.234375 0,-0.234375 -0.128906,-0.234375 -0.257812,-0.234375 -0.609375,-0.0117188 -0.609375,-0.140625 -0.609375,-0.36328125 V -2.9777344 c 0,-0.890625 -0.703125,-1.5351562 -2.191407,-1.5351562 -0.5625,0 -1.78125,0.035156 -1.78125,0.9140625 0,0.4453125 0.351563,0.6328125 0.621094,0.6328125 0.304688,0 0.621094,-0.2109375 0.621094,-0.6328125 0,-0.2929688 -0.1875,-0.46875 -0.210938,-0.4921875 0.28125,-0.058594 0.597657,-0.058594 0.714844,-0.058594 0.75,0 1.089844,0.4101563 1.089844,1.171875 v 0.3398438 c -0.703125,0.023437 -3.234375,0.1171875 -3.234375,1.5585937 0,0.96093752 1.242187,1.13671877 1.921875,1.13671877 0.796875,0 1.265625,-0.41015625 1.488281,-0.8203123 z M 31.037836,-2.3332031 v 0.9492187 c 0,0.94921877 -0.914063,1.07812502 -1.160156,1.07812502 -0.503907,0 -0.902344,-0.33984375 -0.902344,-0.78515622 0,-1.0664063 1.570312,-1.2070313 2.0625,-1.2421875 z m 4.207031,-0.9492188 c 0,-0.1875 0.01172,-0.1992187 0.152344,-0.3398437 0.398437,-0.3984375 0.914062,-0.46875 1.136719,-0.46875 0.667968,0 1.21875,0.609375 1.21875,1.8632812 0,1.40625002 -0.691407,1.92187502 -1.347657,1.92187502 -0.128906,0 -0.597656,0 -1.054687,-0.52734375 -0.105469,-0.12890625 -0.105469,-0.140625 -0.105469,-0.32812497 z m 0,2.89453127 c 0.433594,0.3515625 0.867188,0.4453125 1.277344,0.4453125 1.488281,0 2.507812,-0.890625 2.507812,-2.28515627 0,-1.3242187 -0.902343,-2.2617187 -2.34375,-2.2617187 -0.738281,0 -1.277343,0.3164062 -1.5,0.4921875 v -0.4921875 l -1.769531,0.082031 v 0.46875 c 0.621094,0 0.691406,0 0.691406,0.3867188 v 5.015625 h -0.691406 v 0.46875 c 0.28125,-0.011719 0.878906,-0.035156 1.265625,-0.035156 0.386719,0 0.972656,0.023437 1.253906,0.035156 v -0.46875 h -0.691406 z m 0,0"
       style="fill:#000000;fill-opacity:1;fill-rule:nonzero;stroke:none"
       aria-label="Overlap"
       transform="matrix(1.3333333,0,0,1.3333333,446.292,18.4)" />
    <path
       id="path7"
       d="m 340.16171,56.69362 c 0,15.6557 -12.6911,28.3468 -28.34681,28.3468 -15.6557,0 -28.3468,-12.6911 -28.3468,-28.3468 0,-15.65572 12.6911,-28.34682 28.3468,-28.34682 15.65571,0 28.34681,12.6911 28.34681,28.34682 z"
       style="fill:#fffbb3;fill-opacity:1;fill-rule:nonzero;stroke:#000000;stroke-width:0.3985;stroke-linecap:butt;stroke-linejoin:miter;stroke-miterlimit:10;stroke-dasharray:none;stroke-opacity:1"
       transform="matrix(1.3333333,0,0,-1.3333333,0.13333333,151.31333)" />
    <path
       id="path8"
       d="M 3.9613125,-6.9376094 C 3.9144375,-7.0665156 3.891,-7.1368281 3.7386562,-7.1368281 c -0.1640625,0 -0.1875,0.058594 -0.2460937,0.1992187 l -2.0625,5.96484377 c -0.1757813,0.50390625 -0.57421875,0.65625 -1.11328125,0.66796875 v 0.304687505 c 0.234375,-0.011718755 0.65625,-0.035156255 1.01953125,-0.035156255 0.3046875,0 0.8203125,0.0234375 1.1484375,0.035156255 V -0.30479688 c -0.5039063,0 -0.75,-0.2578125 -0.75,-0.515625 0,-0.0234375 0.011719,-0.12890625 0.023437,-0.140625 L 2.2152187,-2.2735469 H 4.6761562 L 5.2035,-0.75010938 c 0.011719,0.046875 0.023437,0.10546875 0.023437,0.140625 0,0.3046875 -0.5507813,0.3046875 -0.8203125,0.3046875 v 0.304687505 c 0.351563,-0.035156255 1.054688,-0.035156255 1.429688,-0.035156255 0.4335937,0 0.890625,0.01171875 1.3007812,0.035156255 V -0.30479688 H 6.9613125 c -0.5976563,0 -0.7382813,-0.0703125 -0.84375,-0.3984375 z m -0.5273438,1.125 1.125,3.234375 H 2.3206875 Z m 0,0"
       style="fill:#000000;fill-opacity:1;fill-rule:nonzero;stroke:none"
       aria-label="A"
       transform="matrix(1.3333333,0,0,1.3333333,374.312,44.117333)" />
    <path
       id="path9"
       d="m 425.20213,56.69362 c 0,15.6557 -12.69108,28.3468 -28.3468,28.3468 -15.65571,0 -28.34682,-12.6911 -28.34682,-28.3468 0,-15.65572 12.69111,-28.34682 28.34682,-28.34682 15.65572,0 28.3468,12.6911 28.3468,28.34682 z"
       style="fill:#fffbb3;fill-opacity:1;fill-rule:nonzero;stroke:#000000;stroke-width:0.3985;stroke-linecap:butt;stroke-linejoin:miter;stroke-miterlimit:10;stroke-dasharray:none;stroke-opacity:1"
       transform="matrix(1.3333333,0,0,-1.3333333,0.13333333,151.31333)" />
    <path
       id="path10"
       d="m 2.2143438,-3.6446406 v -2.4492188 c 0,-0.328125 0.011719,-0.3984375 0.4804687,-0.3984375 H 3.937 c 0.9609375,0 1.3125,0.84375 1.3125,1.3710938 0,0.6328125 -0.4921875,1.4765625 -1.59375,1.4765625 z m 2.34375,0.09375 c 0.9726562,-0.1992188 1.6523437,-0.8320313 1.6523437,-1.5703125 0,-0.8671875 -0.9140625,-1.6875 -2.203125,-1.6875 H 0.36278125 v 0.3164062 h 0.234375 c 0.76171875,0 0.78515625,0.1054688 0.78515625,0.46875 v 5.25000002 c 0,0.3515625 -0.023437,0.46875 -0.78515625,0.46875 h -0.234375 V -1.09375e-4 H 4.265125 c 1.3242188,0 2.2148438,-0.890625005 2.2148438,-1.828125025 0,-0.8671875 -0.8085938,-1.6054687 -1.921875,-1.7226562 z m -0.609375,3.24609372 H 2.6948125 c -0.46875,0 -0.4804687,-0.0703125 -0.4804687,-0.3984375 V -3.4219844 h 1.875 c 0.984375,0 1.3945312,0.9257813 1.3945312,1.59375 0,0.703125 -0.515625,1.52343752 -1.5351562,1.52343752 z m 0,0"
       style="fill:#000000;fill-opacity:1;fill-rule:nonzero;stroke:none"
       aria-label="B"
       transform="matrix(1.3333333,0,0,1.3333333,488.25067,44.117333)" />
    <path
       id="path11"
       d="M 0,0 H 425.20213 M 0,28.3468 H 425.20213 M 0,56.69362 H 425.20213 M 0,85.04042 H 425.20213 M 0,113.37727 H 425.20213 M 0,0 V 113.38724 M 28.3468,0 V 113.38724 M 56.69362,0 V 113.38724 M 85.04042,0 V 113.38724 M 113.38724,0 V 113.38724 M 141.73404,0 V 113.38724 M 170.08086,0 V 113.38724 M 198.42766,0 V 113.38724 M 226.77448,0 V 113.38724 M 255.12128,0 V 113.38724 M 283.4681,0 V 113.38724 M 311.8149,0 V 113.38724 M 340.16171,0 V 113.38724 M 368.50851,0 V 113.38724 M 396.85533,0 V 113.38724 M 425.19218,0 v 113.38724"
       style="fill:none;stroke:#808080;stroke-width:0.19925;stroke-linecap:butt;stroke-linejoin:miter;stroke-miterlimit:10;stroke-dasharray:none;stroke-opacity:1"
       transform="matrix(1.3333333,0,0,-1.3333333,0.13333333,151.31333)" />
  </g>
</svg>
