<?xml version="1.0" encoding="UTF-8" standalone="no"?>
<!-- Created with Inkscape (http://www.inkscape.org/) -->

<svg
   version="1.1"
   id="svg1"
   width="529.52563"
   height="189.51006"
   viewBox="0 0 529.52563 189.51006"
   xmlns="http://www.w3.org/2000/svg"
   xmlns:svg="http://www.w3.org/2000/svg">
  <defs
     id="defs1" />
  <g
     id="g1"
     transform="translate(3.3332701e-4,0.00171193)">
    <path
       id="path1"
       d="M 0,0 V 141.73404 H 198.42766 V 0 Z"
       style="fill:none;stroke:#000000;stroke-width:0.3985;stroke-linecap:butt;stroke-linejoin:miter;stroke-miterlimit:10;stroke-dasharray:none;stroke-opacity:1"
       transform="matrix(1.3333333,0,0,-1.3333333,0.26533333,189.24267)" />
    <path
       id="path2"
       d="m 1.4647813,-6.3640703 v 5.89453124 H 0.38665625 V -7.890625e-4 H 4.6874375 c 1.9570313,0 3.4453125,-1.2304687375 3.4453125,-3.3515625375 0,-2.1914062 -1.4882812,-3.4804687 -3.4570312,-3.4804687 H 0.38665625 v 0.46875 z m 1.359375,5.89453124 V -6.3640703 h 1.453125 c 0.65625,0 1.4765625,0.1875 1.96875,0.8789062 0.3515625,0.515625 0.4335937,1.1953125 0.4335937,2.1210938 0,1.078125 -0.1289062,1.6054687 -0.4453125,2.0625 -0.4804687,0.66796874 -1.3476562,0.83203124 -1.9570312,0.83203124 z m 8.1884767,-4.01953124 -1.7226564,0.082031 v 0.46875 c 0.5859375,0 0.65625,0 0.65625,0.3867188 v 3.08203124 H 9.2548203 V -7.890625e-4 C 9.5595078,-0.01250781 10.051695,-0.03594531 10.47357,-0.03594531 c 0.292969,0 0.808594,0.0234375 1.160157,0.0351562475 V -0.46953906 h -0.621094 z m 0.105469,-1.6523438 c 0,-0.4453125 -0.363282,-0.7851562 -0.773438,-0.7851562 -0.4335937,0 -0.7851562,0.3515625 -0.7851562,0.7851562 0,0.421875 0.3515625,0.7734375 0.7851562,0.7734375 0.410156,0 0.773438,-0.3398437 0.773438,-0.7734375 z m 2.947265,3.2109375 c -0.363281,-0.070312 -1.007812,-0.1757812 -1.007812,-0.6445312 0,-0.6210938 0.925781,-0.6210938 1.113281,-0.6210938 0.75,0 1.125,0.2929688 1.171875,0.84375 0.01172,0.140625 0.02344,0.1992188 0.234375,0.1992188 0.234375,0 0.234375,-0.058594 0.234375,-0.28125 v -0.796875 c 0,-0.1875 0,-0.28125 -0.175781,-0.28125 -0.04687,0 -0.05859,0 -0.445313,0.1875 -0.269531,-0.1289063 -0.609375,-0.1875 -1.007812,-0.1875 -0.304688,0 -1.839844,0 -1.839844,1.3007812 0,0.3984375 0.199219,0.6679688 0.398437,0.84375 0.398438,0.3398438 0.785157,0.4101563 1.546875,0.5390625 0.363282,0.070312 1.101563,0.1992188 1.101563,0.7851563 0,0.73828124 -0.914063,0.73828124 -1.125,0.73828124 -1.066406,0 -1.324219,-0.72656254 -1.441406,-1.14843754 -0.04687,-0.140625 -0.09375,-0.140625 -0.234375,-0.140625 -0.246094,0 -0.246094,0.058594 -0.246094,0.2929688 v 1.07812499 c 0,0.1875 0,0.28125 0.1875,0.28125 0.07031,0 0.08203,0 0.292969,-0.15234375 0.01172,0 0.234375,-0.140625 0.257812,-0.1640625 0.457031,0.31640625 0.984375,0.31640625 1.183594,0.31640625 0.304687,0 1.839844,0 1.839844,-1.45312499 0,-0.4335938 -0.199219,-0.7734375 -0.550782,-1.0546875 -0.386718,-0.2929688 -0.703125,-0.3515625 -1.488281,-0.4804688 z m 3.254883,-1.4765625 v 0.46875 c 0.164063,0 0.386719,0 0.527344,0.023437 0.222656,0.035156 0.222656,0.1640625 0.222656,0.375 v 3.96093754 c 0,0.4921875 -0.152344,1.20703126 -0.75,1.20703126 -0.152344,0 -0.234375,-0.011719 -0.386719,-0.058594 0.1875,-0.140625 0.246094,-0.3398437 0.246094,-0.4921875 0,-0.35156246 -0.257812,-0.62109371 -0.621094,-0.62109371 -0.375,0 -0.632812,0.26953125 -0.632812,0.63281251 0,0.5625 0.597656,0.9023437 1.417969,0.9023437 0.855468,0 1.804687,-0.515625 1.804687,-1.57031246 V -4.4890703 Z m 1.828125,-1.734375 c 0,-0.4335937 -0.351562,-0.7851562 -0.773437,-0.7851562 -0.433594,0 -0.785157,0.3515625 -0.785157,0.7851562 0,0.421875 0.351563,0.7734375 0.785157,0.7734375 0.421875,0 0.773437,-0.3515625 0.773437,-0.7734375 z m 6.243164,3.9726563 c 0,-1.3359375 -0.914062,-2.34375 -2.542969,-2.34375 -1.628906,0 -2.542968,1.0195312 -2.542968,2.34375 0,1.23046874 0.878906,2.22656249 2.542968,2.22656249 1.675782,0 2.542969,-1.0078125 2.542969,-2.22656249 z m -2.542969,1.82812499 c -1.265625,0 -1.265625,-1.07812499 -1.265625,-1.94531249 0,-0.4453125 0,-0.9492188 0.164063,-1.2890625 0.199219,-0.375 0.609375,-0.5742188 1.101562,-0.5742188 0.421875,0 0.832032,0.1523438 1.054688,0.5039063 0.210937,0.3398437 0.210937,0.890625 0.210937,1.359375 0,0.8671875 0,1.94531249 -1.265625,1.94531249 z m 5.094727,-4.14843749 -1.722656,0.082031 v 0.46875 c 0.585937,0 0.65625,0 0.65625,0.3867188 v 3.08203124 h -0.691407 v 0.4687499975 c 0.304688,-0.0117187475 0.796875,-0.0351562475 1.21875,-0.0351562475 0.292969,0 0.808594,0.0234375 1.160157,0.0351562475 V -0.46953906 h -0.621094 z m 0.105469,-1.6523438 c 0,-0.4453125 -0.363282,-0.7851562 -0.773438,-0.7851562 -0.433594,0 -0.785156,0.3515625 -0.785156,0.7851562 0,0.421875 0.351562,0.7734375 0.785156,0.7734375 0.410156,0 0.773438,-0.3398437 0.773438,-0.7734375 z m 1.986328,2.5898438 v 3.08203124 h -0.691406 v 0.4687499975 c 0.28125,-0.0117187475 0.878906,-0.0351562475 1.253906,-0.0351562475 0.398437,0 0.984375,0.0234375 1.253906,0.0351562475 V -0.46953906 H 31.171813 V -2.5554766 c 0,-1.078125 0.855468,-1.5703125 1.476562,-1.5703125 0.339844,0 0.550781,0.2109375 0.550781,0.9726563 v 2.68359374 H 32.519469 V -7.890625e-4 C 32.789,-0.01250781 33.386656,-0.03594531 33.773375,-0.03594531 c 0.386719,0 0.972656,0.0234375 1.253906,0.0351562475 V -0.46953906 H 34.335875 V -3.0476641 c 0,-1.0429687 -0.539062,-1.4414062 -1.535156,-1.4414062 -0.949219,0 -1.476563,0.5742187 -1.746094,1.078125 v -1.078125 l -1.710937,0.082031 v 0.46875 c 0.621093,0 0.691406,0 0.691406,0.386719 z M 35.9765,-3.9500078 v 2.71875 c 0,1.06640624 0.867188,1.28906249 1.570313,1.28906249 0.75,0 1.207031,-0.5625 1.207031,-1.28906249 v -0.5273438 h -0.46875 v 0.5039063 c 0,0.67968749 -0.316406,0.91406249 -0.597656,0.91406249 -0.585938,0 -0.585938,-0.6328125 -0.585938,-0.86718749 v -2.7421875 h 1.464844 v -0.46875 H 37.1015 v -1.9101563 h -0.457031 c -0.01172,0.9960938 -0.503906,1.9804688 -1.488281,2.015625 v 0.3632813 z m 0,0"
       style="fill:#000000;fill-opacity:1;fill-rule:nonzero;stroke:none"
       aria-label="Disjoint"
       transform="matrix(1.3333333,0,0,1.3333333,106.28133,44.989333)" />
    <path
       id="path3"
       d="m 85.04042,56.69362 c 0,15.6557 -12.6911,28.3468 -28.3468,28.3468 -15.65572,0 -28.34682,-12.6911 -28.34682,-28.3468 0,-15.65572 12.6911,-28.34682 28.34682,-28.34682 15.6557,0 28.3468,12.6911 28.3468,28.34682 z"
       style="fill:#b3e6fa;fill-opacity:1;fill-rule:nonzero;stroke:none"
       transform="matrix(1.3333333,0,0,-1.3333333,0.26533333,189.24267)" />
    <path
       id="path4"
       d="m 3.9611875,-6.9366719 c -0.046875,-0.1289062 -0.070312,-0.1992187 -0.2226562,-0.1992187 -0.1640625,0 -0.1875,0.058594 -0.2460938,0.1992187 l -2.0625,5.96484378 c -0.1757812,0.50390625 -0.57421875,0.65625 -1.11328125,0.66796875 V 8.28125e-4 c 0.234375,-0.011718745 0.65625,-0.035156245 1.01953125,-0.035156245 0.3046875,0 0.8203125,0.0234375 1.1484375,0.035156245 V -0.30385937 c -0.5039062,0 -0.75,-0.2578125 -0.75,-0.515625 0,-0.0234375 0.011719,-0.12890625 0.023437,-0.140625 L 2.2150938,-2.2726094 h 2.4609375 l 0.5273437,1.52343753 c 0.011719,0.046875 0.023437,0.10546875 0.023437,0.140625 0,0.3046875 -0.5507812,0.3046875 -0.8203125,0.3046875 V 8.28125e-4 c 0.351563,-0.035156245 1.054688,-0.035156245 1.429688,-0.035156245 0.4335938,0 0.890625,0.01171875 1.3007813,0.035156245 V -0.30385937 H 6.9611875 c -0.5976562,0 -0.7382812,-0.0703125 -0.84375,-0.3984375 z m -0.5273437,1.125 1.125,3.234375 H 2.3205625 Z m 0,0"
       style="fill:#000000;fill-opacity:1;fill-rule:nonzero;stroke:none"
       aria-label="A"
       transform="matrix(1.3333333,0,0,1.3333333,70.874667,70.897333)" />
    <path
       id="path5"
       d="m 170.08086,56.69362 c 0,15.6557 -12.6911,28.3468 -28.34682,28.3468 -15.65572,0 -28.3468,-12.6911 -28.3468,-28.3468 0,-15.65572 12.69108,-28.34682 28.3468,-28.34682 15.65572,0 28.34682,12.6911 28.34682,28.34682 z"
       style="fill:#b3e6fa;fill-opacity:1;fill-rule:nonzero;stroke:none"
       transform="matrix(1.3333333,0,0,-1.3333333,0.26533333,189.24267)" />
    <path
       id="path6"
       d="m 2.2161406,-3.6437031 v -2.4492188 c 0,-0.328125 0.011719,-0.3984375 0.4804688,-0.3984375 h 1.2421875 c 0.9609375,0 1.3125,0.84375 1.3125,1.3710938 0,0.6328125 -0.4921875,1.4765625 -1.59375,1.4765625 z m 2.34375,0.09375 c 0.9726563,-0.1992188 1.6523438,-0.8320313 1.6523438,-1.5703125 0,-0.8671875 -0.9140625,-1.6875 -2.203125,-1.6875 H 0.36457813 v 0.3164062 h 0.234375 c 0.76171877,0 0.78515627,0.1054688 0.78515627,0.46875 v 5.25000003 c 0,0.3515625 -0.023437,0.46875 -0.78515627,0.46875 h -0.234375 V 8.28125e-4 H 4.2669219 c 1.3242187,0 2.2148437,-0.890624995 2.2148437,-1.828125025 0,-0.8671875 -0.8085937,-1.6054687 -1.921875,-1.7226562 z m -0.609375,3.24609373 H 2.6966094 c -0.46875,0 -0.4804688,-0.0703125 -0.4804688,-0.3984375 V -3.4210469 h 1.875 c 0.984375,0 1.3945313,0.9257813 1.3945313,1.59375 0,0.703125 -0.515625,1.52343753 -1.5351563,1.52343753 z m 0,0"
       style="fill:#000000;fill-opacity:1;fill-rule:nonzero;stroke:none"
       aria-label="B"
       transform="matrix(1.3333333,0,0,1.3333333,184.53733,70.897333)" />
    <path
       id="path7"
       d="m 7.9557109,-3.3757891 c 0,-2.15625 -1.4414062,-3.5625 -3.65625,-3.5625 -2.2734375,0 -3.66796871,1.4648438 -3.66796871,3.5625 0,2.0625 1.39453121,3.48046879 3.65625001,3.48046879 2.296875,0 3.6679687,-1.44140629 3.6679687,-3.48046879 z m -3.6679687,3.07031254 c -0.5859375,0 -1.3125,-0.28125 -1.7226563,-1.04296874 -0.328125,-0.609375 -0.4101562,-1.3242188 -0.4101562,-2.1796875 0,-0.6328125 0.035156,-1.4882813 0.46875,-2.15625 0.4101562,-0.609375 1.078125,-0.8554688 1.6640625,-0.8554688 0.6445312,0 1.3242187,0.2695313 1.7226562,0.9257813 0.3867188,0.6445312 0.421875,1.40625 0.421875,2.0859375 0,0.703125 -0.035156,1.5820312 -0.4570312,2.2734375 -0.4453125,0.72656249 -1.1484375,0.94921874 -1.6875,0.94921874 z M 13.645164,-3.7507891 c 0.05859,-0.140625 0.105469,-0.1992187 0.738281,-0.1992187 v -0.46875 c -0.246093,0.011719 -0.539062,0.023437 -0.785156,0.023437 -0.246094,0 -0.703125,-0.023437 -0.902344,-0.023437 v 0.46875 c 0.1875,0 0.46875,0.023437 0.46875,0.1054687 0,0.011719 -0.01172,0.023437 -0.04687,0.1171875 l -1.160156,2.4960938 -1.253906,-2.71875 h 0.527344 v -0.46875 c -0.328125,0.011719 -1.21875,0.023437 -1.230469,0.023437 -0.2812502,0 -0.7265627,-0.023437 -1.1367189,-0.023437 v 0.46875 h 0.6445312 l 1.7343747,3.73828124 c 0.117188,0.24609375 0.257813,0.24609375 0.386719,0.24609375 0.164063,0 0.269531,-0.0234375 0.363281,-0.234375 z m 5.293945,1.5820313 c 0.210938,0 0.316407,0 0.316407,-0.2695313 0,-0.3164062 -0.05859,-1.0429687 -0.5625,-1.5351562 -0.363282,-0.3632813 -0.890625,-0.5390625 -1.582032,-0.5390625 -1.59375,0 -2.460937,1.0195312 -2.460937,2.2734375 0,1.33593749 0.996094,2.29687499 2.601562,2.29687499 1.570313,0 2.003907,-1.0546875 2.003907,-1.21874999 0,-0.1875 -0.1875,-0.1875 -0.234375,-0.1875 -0.175782,0 -0.199219,0.046875 -0.257813,0.2109375 -0.210937,0.48046874 -0.773437,0.79687499 -1.417969,0.79687499 -1.40625,0 -1.417968,-1.32421879 -1.417968,-1.82812499 z m -3.011718,-0.328125 c 0.02344,-0.3984375 0.03516,-0.8085938 0.234375,-1.1367188 0.269531,-0.3984375 0.667968,-0.515625 0.949218,-0.515625 1.171875,0 1.183594,1.3007813 1.195313,1.6523438 z m 5.686523,-0.8554688 v -1.1367187 l -1.664062,0.082031 v 0.46875 c 0.621093,0 0.691406,0 0.691406,0.3867188 v 3.08203124 H 19.949852 V -7.890625e-4 C 20.301414,-0.01250781 20.746727,-0.03594531 21.215477,-0.03594531 c 0.375,0 1.007812,0 1.371093,0.0351562475 V -0.46953906 H 21.719383 V -2.2156328 c 0,-0.6914063 0.246094,-1.9101563 1.242187,-1.9101563 -0.01172,0.011719 -0.1875,0.1757813 -0.1875,0.4570313 0,0.4101562 0.316407,0.609375 0.609375,0.609375 0.292969,0 0.609375,-0.2109375 0.609375,-0.609375 0,-0.5273438 -0.539062,-0.8203125 -1.054687,-0.8203125 -0.703125,0 -1.101563,0.5039062 -1.324219,1.1367187 z m 4.916016,-3.5625 -1.757813,0.082031 v 0.46875 c 0.621094,0 0.691406,0 0.691406,0.3867187 v 5.50781254 H 24.772117 V -7.890625e-4 C 25.088523,-0.01250781 25.568992,-0.03594531 26.002586,-0.03594531 c 0.421875,0 0.878906,0.0234375 1.21875,0.0351562475 V -0.46953906 H 26.52993 Z m 4.68164,6.15234379 c 0,0.3046875 0,0.7617187475 1.03125,0.7617187475 h 0.480469 c 0.199219,0 0.316406,0 0.316406,-0.2343749975 0,-0.234375 -0.128906,-0.234375 -0.257812,-0.234375 -0.609375,-0.0117188 -0.609375,-0.140625 -0.609375,-0.36328125 V -2.9773516 c 0,-0.890625 -0.703125,-1.5351562 -2.191406,-1.5351562 -0.5625,0 -1.78125,0.035156 -1.78125,0.9140625 0,0.4453125 0.351562,0.6328125 0.621093,0.6328125 0.304688,0 0.621094,-0.2109375 0.621094,-0.6328125 0,-0.2929688 -0.1875,-0.46875 -0.210937,-0.4921875 0.28125,-0.058594 0.597656,-0.058594 0.714843,-0.058594 0.75,0 1.089844,0.4101563 1.089844,1.171875 v 0.3398438 c -0.703125,0.023437 -3.234375,0.1171875 -3.234375,1.5585937 0,0.96093754 1.242188,1.13671879 1.921875,1.13671879 0.796875,0 1.265625,-0.41015625 1.488281,-0.8203123 z M 31.035789,-2.3328203 v 0.9492187 c 0,0.94921879 -0.914062,1.07812504 -1.160156,1.07812504 -0.503906,0 -0.902344,-0.33984375 -0.902344,-0.78515624 0,-1.0664063 1.570313,-1.2070313 2.0625,-1.2421875 z m 4.209961,-0.9492188 c 0,-0.1875 0.01172,-0.1992187 0.152344,-0.3398437 0.398437,-0.3984375 0.914062,-0.46875 1.136719,-0.46875 0.667968,0 1.21875,0.609375 1.21875,1.8632812 0,1.40625004 -0.691407,1.92187504 -1.347657,1.92187504 -0.128906,0 -0.597656,0 -1.054687,-0.52734375 -0.105469,-0.12890625 -0.105469,-0.140625 -0.105469,-0.32812499 z m 0,2.89453129 c 0.433594,0.3515625 0.867188,0.4453125 1.277344,0.4453125 1.488281,0 2.507812,-0.890625 2.507812,-2.28515629 0,-1.3242187 -0.902343,-2.2617187 -2.34375,-2.2617187 -0.738281,0 -1.277343,0.3164062 -1.5,0.4921875 v -0.4921875 l -1.769531,0.082031 v 0.46875 c 0.621094,0 0.691406,0 0.691406,0.3867188 v 5.015625 h -0.691406 v 0.46875 c 0.28125,-0.011719 0.878906,-0.035156 1.265625,-0.035156 0.386719,0 0.972656,0.023437 1.253906,0.035156 v -0.46875 H 35.24575 Z m 0,0"
       style="fill:#000000;fill-opacity:1;fill-rule:nonzero;stroke:none"
       aria-label="Overlap"
       transform="matrix(1.3333333,0,0,1.3333333,408.63067,44.989333)" />
    <path
       id="path8"
       d="m 311.8149,56.69362 c 0,15.6557 -12.69109,28.3468 -28.3468,28.3468 -15.65572,0 -28.34682,-12.6911 -28.34682,-28.3468 0,-15.65572 12.6911,-28.34682 28.34682,-28.34682 15.65571,0 28.3468,12.6911 28.3468,28.34682 z"
       style="fill:#b3e6fa;fill-opacity:1;fill-rule:nonzero;stroke:none"
       transform="matrix(1.3333333,0,0,-1.3333333,0.26533333,189.24267)" />
    <path
       id="path9"
       d="m 3.9616484,-6.9366719 c -0.046875,-0.1289062 -0.070312,-0.1992187 -0.2226562,-0.1992187 -0.1640625,0 -0.1875,0.058594 -0.2460938,0.1992187 l -2.0625,5.96484378 c -0.1757812,0.50390625 -0.57421871,0.65625 -1.11328121,0.66796875 V 8.28125e-4 c 0.234375,-0.011718745 0.65625,-0.035156245 1.01953121,-0.035156245 0.3046875,0 0.8203125,0.0234375 1.1484375,0.035156245 V -0.30385937 c -0.5039062,0 -0.75,-0.2578125 -0.75,-0.515625 0,-0.0234375 0.011719,-0.12890625 0.023437,-0.140625 L 2.2155547,-2.2726094 h 2.4609375 l 0.5273437,1.52343753 c 0.011719,0.046875 0.023437,0.10546875 0.023437,0.140625 0,0.3046875 -0.5507812,0.3046875 -0.8203125,0.3046875 V 8.28125e-4 c 0.351563,-0.035156245 1.054688,-0.035156245 1.429688,-0.035156245 0.4335938,0 0.890625,0.01171875 1.3007813,0.035156245 V -0.30385937 H 6.9616484 c -0.5976562,0 -0.7382812,-0.0703125 -0.84375,-0.3984375 z m -0.5273437,1.125 1.125,3.234375 H 2.3210234 Z m 0,0"
       style="fill:#000000;fill-opacity:1;fill-rule:nonzero;stroke:none"
       aria-label="A"
       transform="matrix(1.3333333,0,0,1.3333333,373.23733,70.897333)" />
    <path
       id="path10"
       d="m 354.33511,56.69362 c 0,15.6557 -12.6911,28.3468 -28.34681,28.3468 -15.65572,0 -28.3468,-12.6911 -28.3468,-28.3468 0,-15.65572 12.69108,-28.34682 28.3468,-28.34682 15.65571,0 28.34681,12.6911 28.34681,28.34682 z"
       style="fill:#b3e6fa;fill-opacity:1;fill-rule:nonzero;stroke:none"
       transform="matrix(1.3333333,0,0,-1.3333333,0.26533333,189.24267)" />
    <path
       id="path11"
       d="m 2.2151172,-3.6437031 v -2.4492188 c 0,-0.328125 0.011719,-0.3984375 0.4804687,-0.3984375 h 1.2421875 c 0.9609375,0 1.3125,0.84375 1.3125,1.3710938 0,0.6328125 -0.4921875,1.4765625 -1.59375,1.4765625 z m 2.34375,0.09375 c 0.9726562,-0.1992188 1.6523437,-0.8320313 1.6523437,-1.5703125 0,-0.8671875 -0.9140625,-1.6875 -2.203125,-1.6875 H 0.36355469 v 0.3164062 h 0.234375 c 0.76171871,0 0.78515621,0.1054688 0.78515621,0.46875 v 5.25000003 c 0,0.3515625 -0.023437,0.46875 -0.78515621,0.46875 h -0.234375 V 8.28125e-4 H 4.2658984 c 1.3242188,0 2.2148438,-0.890624995 2.2148438,-1.828125025 0,-0.8671875 -0.8085938,-1.6054687 -1.921875,-1.7226562 z m -0.609375,3.24609373 H 2.6955859 c -0.46875,0 -0.4804687,-0.0703125 -0.4804687,-0.3984375 V -3.4210469 h 1.875 c 0.984375,0 1.3945312,0.9257813 1.3945312,1.59375 0,0.703125 -0.515625,1.52343753 -1.5351562,1.52343753 z m 0,0"
       style="fill:#000000;fill-opacity:1;fill-rule:nonzero;stroke:none"
       aria-label="B"
       transform="matrix(1.3333333,0,0,1.3333333,430.20667,70.897333)" />
    <path
       id="path12"
       d="M 226.77448,0 H 396.85533 M 226.77448,28.3468 H 396.85533 M 226.77448,56.69362 H 396.85533 M 226.77448,85.04042 H 396.85533 M 226.77448,113.38724 H 396.85533 M 226.77448,141.72409 H 396.85533 M 226.77448,0 V 141.73404 M 255.12128,0 V 141.73404 M 283.4681,0 V 141.73404 M 311.8149,0 V 141.73404 M 340.16171,0 V 141.73404 M 368.50851,0 V 141.73404 M 396.84537,0 v 141.73404"
       style="fill:none;stroke:#808080;stroke-width:0.19925;stroke-linecap:butt;stroke-linejoin:miter;stroke-miterlimit:10;stroke-dasharray:none;stroke-opacity:1"
       transform="matrix(1.3333333,0,0,-1.3333333,0.26533333,189.24267)" />
  </g>
</svg>
