<?xml version="1.0" encoding="UTF-8" standalone="no"?>
<!-- Created with Inkscape (http://www.inkscape.org/) -->

<svg
   version="1.1"
   id="svg1"
   width="567.18854"
   height="151.43536"
   viewBox="0 0 567.18854 151.43536"
   xmlns="http://www.w3.org/2000/svg"
   xmlns:svg="http://www.w3.org/2000/svg">
  <defs
     id="defs1" />
  <g
     id="g1"
     transform="translate(-5.000015e-4,-0.01080712)">
    <path
       id="path1"
       d="m 1.5242812,-5.8697734 c 0,-0.5976563 -0.234375,-1.0429688 -0.6679687,-1.0429688 -0.3515625,0 -0.52734375,0.2695313 -0.52734375,0.5273438 0,0.2578125 0.17578125,0.5273437 0.52734375,0.5273437 0.1992187,0 0.3398437,-0.09375 0.3984375,-0.1523437 0.011719,-0.023437 0.023437,-0.035156 0.035156,-0.035156 0.011719,0 0.011719,0.140625 0.011719,0.1757813 0,0.328125 -0.070312,1.0429687 -0.69140625,1.6523437 -0.1171875,0.1289063 -0.1171875,0.140625 -0.1171875,0.1757813 0,0.070312 0.046875,0.1054687 0.09375,0.1054687 0.1171875,0 0.93749995,-0.75 0.93749995,-1.933594 z m 1.9335938,0 c 0,-0.5976563 -0.234375,-1.0429688 -0.6679688,-1.0429688 -0.3515625,0 -0.5273437,0.2695313 -0.5273437,0.5273438 0,0.2578125 0.1640625,0.5273437 0.5273437,0.5273437 0.1992188,0 0.3398438,-0.09375 0.3984375,-0.1523437 0.011719,-0.023437 0.023437,-0.035156 0.035156,-0.035156 0.011719,0 0.011719,0.140625 0.011719,0.1757813 0,0.328125 -0.070312,1.0429687 -0.6914062,1.6523437 -0.1171875,0.1289063 -0.1171875,0.140625 -0.1171875,0.1757813 0,0.070312 0.046875,0.1054687 0.09375,0.1054687 0.1054687,0 0.9375,-0.75 0.9375,-1.933594 z m 1.875,-0.9375 v 0.3164062 H 5.56725 c 0.7734375,0 0.7851562,0.1054688 0.7851562,0.46875 v 5.25000001 c 0,0.3515625 -0.011719,0.46875 -0.7851562,0.46875 H 5.332875 v 0.3046875 h 3.6445312 c 1.6757808,0 3.0468748,-1.47656251 3.0468748,-3.35156251 0,-1.8867187 -1.347656,-3.4570312 -3.0468748,-3.4570312 z m 2.3671875,6.50390621 c -0.46875,0 -0.4921875,-0.0703125 -0.4921875,-0.3984375 V -6.0924297 c 0,-0.328125 0.023437,-0.3984375 0.4921875,-0.3984375 h 0.9960937 c 0.6210938,0 1.3007813,0.2109375 1.8164058,0.9257813 0.421875,0.5859375 0.515625,1.4414062 0.515625,2.2148437 0,1.1132813 -0.1875,1.7109375 -0.550781,2.1914063 -0.199219,0.26953121 -0.7617185,0.85546871 -1.769531,0.85546871 z m 6.6503905,-4.10156251 -1.394531,0.1171875 v 0.3046875 c 0.65625,0 0.738281,0.058594 0.738281,0.5507813 v 2.67187496 c 0,0.45703125 -0.105469,0.45703125 -0.773437,0.45703125 v 0.3046875 c 0.316406,-0.01171875 0.855468,-0.03515625 1.101562,-0.03515625 0.339844,0 0.691406,0.0234375 1.03125,0.03515625 v -0.3046875 c -0.65625,0 -0.703125,-0.0585938 -0.703125,-0.4453125 z m 0.04687,-1.734375 c 0,-0.3164062 -0.246094,-0.5273437 -0.527344,-0.5273437 -0.316406,0 -0.527343,0.2695312 -0.527343,0.5273437 0,0.2695313 0.210937,0.5273438 0.527343,0.5273438 0.28125,0 0.527344,-0.1992188 0.527344,-0.5273438 z m 3.035156,4.2070313 c 0.222657,0.035156 1.03125,0.1992187 1.03125,0.9140625 0,0.51562496 -0.351562,0.91406246 -1.125,0.91406246 -0.832031,0 -1.195312,-0.57421875 -1.382812,-1.41796876 -0.03516,-0.1289062 -0.03516,-0.1757812 -0.140625,-0.1757812 -0.128906,0 -0.128906,0.070312 -0.128906,0.2578125 v 1.31249996 c 0,0.1640625 0,0.234375 0.105468,0.234375 0.05859,0 0.07031,0 0.257813,-0.19921875 0.01172,-0.01171875 0.01172,-0.03515625 0.199219,-0.22265625 0.433593,0.421875 0.878906,0.421875 1.089843,0.421875 1.148438,0 1.605469,-0.66796875 1.605469,-1.38281246 0,-0.5273438 -0.292969,-0.8203125 -0.421875,-0.9492188 -0.328125,-0.3164062 -0.714844,-0.3984375 -1.136719,-0.46875 -0.550781,-0.1171875 -1.21875,-0.2460937 -1.21875,-0.8203125 0,-0.3515625 0.257813,-0.7617187 1.113282,-0.7617187 1.101562,0 1.148437,0.9023437 1.171875,1.2070312 0,0.09375 0.09375,0.09375 0.117187,0.09375 0.128906,0 0.128906,-0.046875 0.128906,-0.2460937 v -0.9960938 c 0,-0.1757812 0,-0.2460937 -0.117187,-0.2460937 -0.04687,0 -0.07031,0 -0.199219,0.1171875 -0.02344,0.046875 -0.128906,0.1289062 -0.164062,0.1640625 -0.375,-0.28125 -0.785157,-0.28125 -0.9375,-0.28125 -1.21875,0 -1.59375,0.6679687 -1.59375,1.2304687 0,0.3398438 0.164062,0.6210938 0.433593,0.84375 0.316407,0.2578125 0.597657,0.3164063 1.3125,0.4570313 z m 3.955078,-2.4726563 -1.523437,0.1171875 v 0.3046875 c 0.773437,0 0.855469,0.070312 0.855469,0.5625 v 3.93750001 c 0,0.4453125 -0.08203,1.31249999 -0.726563,1.31249999 -0.04687,0 -0.269531,0 -0.539062,-0.1289062 0.152343,-0.046875 0.351562,-0.1875 0.351562,-0.4570313 0,-0.25781249 -0.175781,-0.45703124 -0.457031,-0.45703124 -0.28125,0 -0.457031,0.19921875 -0.457031,0.45703124 0,0.515625 0.5625,0.796875 1.125,0.796875 0.75,0 1.371093,-0.6328125 1.371093,-1.53515624 z m 0,-1.734375 c 0,-0.28125 -0.246093,-0.5273437 -0.539062,-0.5273437 -0.28125,0 -0.527344,0.2460937 -0.527344,0.5273437 0,0.2929688 0.246094,0.5273438 0.527344,0.5273438 0.292969,0 0.539062,-0.234375 0.539062,-0.5273438 z m 5.63379,4.0078125 c 0,-1.2773437 -0.996094,-2.3320312 -2.191407,-2.3320312 -1.253906,0 -2.214843,1.0898437 -2.214843,2.3320312 0,1.28906251 1.03125,2.23828126 2.203125,2.23828126 1.207031,0 2.203125,-0.97265625 2.203125,-2.23828126 z m -2.191407,1.99218751 c -0.433593,0 -0.867187,-0.2109375 -1.136718,-0.66796875 -0.257813,-0.43359376 -0.257813,-1.04296876 -0.257813,-1.40624996 0,-0.3867188 0,-0.9257813 0.246094,-1.359375 0.269531,-0.4570313 0.738281,-0.6679688 1.136719,-0.6679688 0.433593,0 0.867187,0.2226563 1.125,0.6445313 0.257812,0.4335937 0.257812,1.0078125 0.257812,1.3828125 0,0.3632812 0,0.9023437 -0.222656,1.33593746 -0.222656,0.4453125 -0.65625,0.73828125 -1.148438,0.73828125 z m 4.242188,-4.26562501 -1.394531,0.1171875 v 0.3046875 c 0.65625,0 0.738281,0.058594 0.738281,0.5507813 v 2.67187496 c 0,0.45703125 -0.105469,0.45703125 -0.773438,0.45703125 v 0.3046875 c 0.316407,-0.01171875 0.855469,-0.03515625 1.101563,-0.03515625 0.339844,0 0.691406,0.0234375 1.03125,0.03515625 v -0.3046875 c -0.65625,0 -0.703125,-0.0585938 -0.703125,-0.4453125 z m 0.04687,-1.734375 c 0,-0.3164062 -0.246094,-0.5273437 -0.527344,-0.5273437 -0.316406,0 -0.527344,0.2695312 -0.527344,0.5273437 0,0.2695313 0.210938,0.5273438 0.527344,0.5273438 0.28125,0 0.527344,-0.1992188 0.527344,-0.5273438 z m 2.065429,2.71875 v 2.66015626 c 0,0.45703125 -0.117187,0.45703125 -0.785156,0.45703125 v 0.3046875 c 0.351563,-0.01171875 0.855469,-0.03515625 1.125,-0.03515625 0.257813,0 0.785156,0.0234375 1.113281,0.03515625 v -0.3046875 c -0.65625,0 -0.773437,0 -0.773437,-0.45703125 V -2.5885234 c 0,-1.03125 0.714844,-1.59375 1.347656,-1.59375 0.621094,0 0.738281,0.5390625 0.738281,1.1015625 v 2.32031246 c 0,0.45703125 -0.117187,0.45703125 -0.773437,0.45703125 v 0.3046875 c 0.339844,-0.01171875 0.855469,-0.03515625 1.125,-0.03515625 0.257812,0 0.773437,0.0234375 1.113281,0.03515625 v -0.3046875 c -0.515625,0 -0.773437,0 -0.785156,-0.3046875 V -2.5064922 c 0,-0.8554687 0,-1.171875 -0.304688,-1.5234375 -0.140625,-0.1757812 -0.46875,-0.375 -1.042968,-0.375 -0.726563,0 -1.195313,0.4335938 -1.476563,1.0546875 v -1.0546875 l -1.40625,0.1171875 v 0.3046875 c 0.703125,0 0.785156,0.070312 0.785156,0.5625 z m 5.876954,-0.5625 h 1.429687 v -0.3046875 h -1.429687 v -1.8398437 h -0.246094 c -0.01172,0.8203125 -0.316406,1.8867187 -1.289063,1.921875 v 0.2226562 h 0.84375 v 2.7539063 c 0,1.21874996 0.925782,1.33593746 1.289063,1.33593746 0.703125,0 0.984375,-0.703125 0.984375,-1.33593746 v -0.5742188 h -0.246094 v 0.5507813 c 0,0.73828121 -0.304687,1.11328121 -0.667969,1.11328121 -0.667968,0 -0.667968,-0.90234371 -0.667968,-1.07812501 z m 3.673828,-1.8867187 c 0,-0.5976563 -0.234375,-1.0429688 -0.667969,-1.0429688 -0.351563,0 -0.527344,0.2695313 -0.527344,0.5273438 0,0.2578125 0.175781,0.5273437 0.527344,0.5273437 0.199219,0 0.339844,-0.09375 0.398437,-0.1523437 0.01172,-0.023437 0.02344,-0.035156 0.03516,-0.035156 0.01172,0 0.01172,0.140625 0.01172,0.1757813 0,0.328125 -0.07031,1.0429687 -0.691406,1.6523437 -0.117187,0.1289063 -0.117187,0.140625 -0.117187,0.1757813 0,0.070312 0.04687,0.1054687 0.09375,0.1054687 0.117187,0 0.9375,-0.75 0.9375,-1.9335937 z m 1.933593,0 c 0,-0.5976563 -0.234375,-1.0429688 -0.667968,-1.0429688 -0.351563,0 -0.527344,0.2695313 -0.527344,0.5273438 0,0.2578125 0.164062,0.5273437 0.527344,0.5273437 0.199218,0 0.339843,-0.09375 0.398437,-0.1523437 0.01172,-0.023437 0.02344,-0.035156 0.03516,-0.035156 0.01172,0 0.01172,0.140625 0.01172,0.1757813 0,0.328125 -0.07031,1.0429687 -0.691406,1.6523437 -0.117188,0.1289063 -0.117188,0.140625 -0.117188,0.1757813 0,0.070312 0.04687,0.1054687 0.09375,0.1054687 0.105469,0 0.9375,-0.75 0.9375,-1.9335937 z m 0,0"
       style="fill:#000000;fill-opacity:1;fill-rule:nonzero;stroke:none"
       aria-label="”Disjoint”"
       transform="matrix(1.3333333,0,0,1.3333333,102.952,17.869333)" />
    <path
       id="path2"
       d="m 85.04042,56.69362 c 0,15.6557 -12.6911,28.3468 -28.3468,28.3468 -15.65572,0 -28.34682,-12.6911 -28.34682,-28.3468 0,-15.65572 12.6911,-28.34682 28.34682,-28.34682 15.6557,0 28.3468,12.6911 28.3468,28.34682 z"
       style="fill:#fffbb3;fill-opacity:1;fill-rule:nonzero;stroke:#000000;stroke-width:0.79701;stroke-linecap:butt;stroke-linejoin:miter;stroke-miterlimit:10;stroke-dasharray:none;stroke-opacity:1"
       transform="matrix(1.3333333,0,0,-1.3333333,0.13333333,151.31333)" />
    <path
       id="path3"
       d="m 3.9622813,-6.9374531 c -0.046875,-0.1289063 -0.070312,-0.1992188 -0.2226563,-0.1992188 -0.1640625,0 -0.1875,0.058594 -0.2460937,0.1992188 l -2.0625,5.96484373 C 1.25525,-0.46870312 0.8568125,-0.31635937 0.31775,-0.30464062 V 4.6875e-5 C 0.552125,-0.01167187 0.974,-0.03510937 1.3372813,-0.03510937 c 0.3046875,0 0.8203125,0.0234375 1.1484375,0.035156245 V -0.30464062 c -0.5039063,0 -0.75,-0.2578125 -0.75,-0.515625 0,-0.0234375 0.011719,-0.12890625 0.023437,-0.140625 L 2.2161875,-2.2733906 H 4.677125 l 0.5273438,1.52343748 c 0.011719,0.046875 0.023437,0.10546875 0.023437,0.140625 0,0.3046875 -0.5507813,0.3046875 -0.8203125,0.3046875 V 4.6875e-5 c 0.351563,-0.035156245 1.054688,-0.035156245 1.429688,-0.035156245 0.4335937,0 0.890625,0.01171875 1.3007812,0.035156245 V -0.30464062 H 6.9622813 c -0.5976563,0 -0.7382813,-0.0703125 -0.84375,-0.3984375 z m -0.5273438,1.125 1.125,3.234375 H 2.3216563 Z m 0,0"
       style="fill:#000000;fill-opacity:1;fill-rule:nonzero;stroke:none"
       aria-label="A"
       transform="matrix(1.3333333,0,0,1.3333333,33.701333,43.664)" />
    <path
       id="path4"
       d="m 170.08086,56.69362 c 0,15.6557 -12.6911,28.3468 -28.34682,28.3468 -15.65572,0 -28.3468,-12.6911 -28.3468,-28.3468 0,-15.65572 12.69108,-28.34682 28.3468,-28.34682 15.65572,0 28.34682,12.6911 28.34682,28.34682 z"
       style="fill:#fffbb3;fill-opacity:1;fill-rule:nonzero;stroke:#000000;stroke-width:0.79701;stroke-linecap:butt;stroke-linejoin:miter;stroke-miterlimit:10;stroke-dasharray:none;stroke-opacity:1"
       transform="matrix(1.3333333,0,0,-1.3333333,0.13333333,151.31333)" />
    <path
       id="path5"
       d="m 2.2153125,-3.6444844 v -2.4492187 c 0,-0.328125 0.011719,-0.3984375 0.4804688,-0.3984375 h 1.2421875 c 0.9609375,0 1.3125,0.84375 1.3125,1.3710937 0,0.6328125 -0.4921875,1.4765625 -1.59375,1.4765625 z m 2.34375,0.09375 c 0.9726563,-0.1992187 1.6523438,-0.8320312 1.6523438,-1.5703125 0,-0.8671875 -0.9140625,-1.6875 -2.203125,-1.6875 H 0.36375 v 0.3164063 h 0.234375 c 0.7617188,0 0.7851563,0.1054687 0.7851563,0.46875 v 5.24999998 c 0,0.3515625 -0.023437,0.46875 -0.7851563,0.46875 H 0.36375 V 4.6875e-5 h 3.9023438 c 1.3242187,0 2.2148437,-0.890624995 2.2148437,-1.828124975 0,-0.8671875 -0.8085937,-1.6054688 -1.921875,-1.7226563 z m -0.609375,3.24609378 H 2.6957813 c -0.46875,0 -0.4804688,-0.0703125 -0.4804688,-0.3984375 V -3.4218281 h 1.875 c 0.984375,0 1.3945313,0.9257812 1.3945313,1.59375 0,0.703125 -0.515625,1.52343748 -1.5351563,1.52343748 z m 0,0"
       style="fill:#000000;fill-opacity:1;fill-rule:nonzero;stroke:none"
       aria-label="B"
       transform="matrix(1.3333333,0,0,1.3333333,147.64,43.664)" />
    <path
       id="path6"
       d="M 0,0 H 425.20213 M 0,28.3468 H 425.20213 M 0,56.69362 H 425.20213 M 0,85.04042 H 425.20213 M 0,113.37727 H 425.20213 M 0,0 V 113.38724 M 28.3468,0 V 113.38724 M 56.69362,0 V 113.38724 M 85.04042,0 V 113.38724 M 113.38724,0 V 113.38724 M 141.73404,0 V 113.38724 M 170.08086,0 V 113.38724 M 198.42766,0 V 113.38724 M 226.77448,0 V 113.38724 M 255.12128,0 V 113.38724 M 283.4681,0 V 113.38724 M 311.8149,0 V 113.38724 M 340.16171,0 V 113.38724 M 368.50851,0 V 113.38724 M 396.85533,0 V 113.38724 M 425.19218,0 v 113.38724"
       style="fill:none;stroke:#808080;stroke-width:0.19925;stroke-linecap:butt;stroke-linejoin:miter;stroke-miterlimit:10;stroke-dasharray:none;stroke-opacity:1"
       transform="matrix(1.3333333,0,0,-1.3333333,0.13333333,151.31333)" />
  </g>
</svg>
