<?xml version="1.0" encoding="UTF-8" standalone="no"?>
<!-- Created with Inkscape (http://www.inkscape.org/) -->

<svg
   version="1.1"
   id="svg1"
   width="567.46747"
   height="189.51006"
   viewBox="0 0 567.46747 189.51006"
   xmlns="http://www.w3.org/2000/svg"
   xmlns:svg="http://www.w3.org/2000/svg">
  <defs
     id="defs1">
    <clipPath
       clipPathUnits="userSpaceOnUse"
       id="clipPath22">
      <path
         d="m 368.50851,70.867 c 0,15.65572 -12.69108,28.34682 -28.3468,28.34682 -15.65571,0 -28.34681,-12.6911 -28.34681,-28.34682 0,-15.6557 12.6911,-28.3468 28.34681,-28.3468 15.65572,0 28.3468,12.6911 28.3468,28.3468 z"
         id="path22" />
    </clipPath>
    <clipPath
       clipPathUnits="userSpaceOnUse"
       id="clipPath24">
      <path
         d="m 325.9883,70.867 c 0,15.65572 -12.6911,28.34682 -28.3468,28.34682 -15.65572,0 -28.34682,-12.6911 -28.34682,-28.34682 0,-15.6557 12.6911,-28.3468 28.34682,-28.3468 15.6557,0 28.3468,12.6911 28.3468,28.3468 z"
         transform="matrix(1.3333333,0,0,-1.3333333,0.26533333,189.24267)"
         id="path24" />
    </clipPath>
  </defs>
  <g
     id="g1"
     transform="translate(3.3332701e-4,0.00171193)">
    <path
       id="path1"
       d="M 0,0 V 141.73404 H 198.42766 V 0 Z"
       style="fill:none;stroke:#000000;stroke-width:0.3985;stroke-linecap:butt;stroke-linejoin:miter;stroke-miterlimit:10;stroke-dasharray:none;stroke-opacity:1"
       transform="matrix(1.3333333,0,0,-1.3333333,0.26533333,189.24267)" />
    <path
       id="path2"
       d="m 1.4647813,-6.3619687 v 5.8945312 H 0.38665625 v 0.46875 H 4.6874375 c 1.9570313,0 3.4453125,-1.2304687 3.4453125,-3.3515625 0,-2.1914062 -1.4882812,-3.4804687 -3.4570312,-3.4804687 H 0.38665625 v 0.46875 z m 1.359375,5.8945312 v -5.8945312 h 1.453125 c 0.65625,0 1.4765625,0.1875 1.96875,0.8789062 0.3515625,0.515625 0.4335937,1.1953125 0.4335937,2.1210938 0,1.078125 -0.1289062,1.6054687 -0.4453125,2.0625 C 5.7538438,-0.6315 4.8866563,-0.4674375 4.2772813,-0.4674375 Z m 8.1884767,-4.0195312 -1.7226564,0.082031 v 0.46875 c 0.5859375,0 0.65625,0 0.65625,0.3867188 v 3.0820312 H 9.2548203 v 0.46875 c 0.3046875,-0.01171875 0.7968747,-0.03515625 1.2187497,-0.03515625 0.292969,0 0.808594,0.0234375 1.160157,0.03515625 v -0.46875 h -0.621094 z m 0.105469,-1.6523438 c 0,-0.4453125 -0.363282,-0.7851562 -0.773438,-0.7851562 -0.4335937,0 -0.7851562,0.3515625 -0.7851562,0.7851562 0,0.421875 0.3515625,0.7734375 0.7851562,0.7734375 0.410156,0 0.773438,-0.3398437 0.773438,-0.7734375 z m 2.947265,3.2109375 c -0.363281,-0.070312 -1.007812,-0.1757812 -1.007812,-0.6445312 0,-0.6210938 0.925781,-0.6210938 1.113281,-0.6210938 0.75,0 1.125,0.2929688 1.171875,0.84375 0.01172,0.140625 0.02344,0.1992188 0.234375,0.1992188 0.234375,0 0.234375,-0.058594 0.234375,-0.28125 v -0.796875 c 0,-0.1875 0,-0.28125 -0.175781,-0.28125 -0.04687,0 -0.05859,0 -0.445313,0.1875 -0.269531,-0.1289063 -0.609375,-0.1875 -1.007812,-0.1875 -0.304688,0 -1.839844,0 -1.839844,1.3007812 0,0.3984375 0.199219,0.6679688 0.398437,0.84375 0.398438,0.3398438 0.785157,0.4101563 1.546875,0.5390625 0.363282,0.070312 1.101563,0.1992188 1.101563,0.7851563 0,0.7382812 -0.914063,0.7382812 -1.125,0.7382812 -1.066406,0 -1.324219,-0.7265625 -1.441406,-1.1484375 -0.04687,-0.140625 -0.09375,-0.140625 -0.234375,-0.140625 -0.246094,0 -0.246094,0.058594 -0.246094,0.2929688 v 1.07812495 c 0,0.1875 0,0.28125 0.1875,0.28125 0.07031,0 0.08203,0 0.292969,-0.15234375 0.01172,0 0.234375,-0.140625 0.257812,-0.1640625 0.457031,0.31640625 0.984375,0.31640625 1.183594,0.31640625 0.304687,0 1.839844,0 1.839844,-1.45312495 0,-0.4335938 -0.199219,-0.7734375 -0.550782,-1.0546875 C 15.16693,-2.740875 14.850523,-2.7994687 14.065367,-2.928375 Z m 3.254883,-1.4765625 v 0.46875 c 0.164063,0 0.386719,0 0.527344,0.023437 0.222656,0.035156 0.222656,0.1640625 0.222656,0.375 V 0.423187 c 0,0.4921875 -0.152344,1.2070313 -0.75,1.2070313 -0.152344,0 -0.234375,-0.011719 -0.386719,-0.058594 0.1875,-0.140625 0.246094,-0.3398437 0.246094,-0.4921875 0,-0.3515625 -0.257812,-0.62109375 -0.621094,-0.62109375 -0.375,0 -0.632812,0.26953125 -0.632812,0.63281255 0,0.5625 0.597656,0.9023437 1.417969,0.9023437 0.855468,0 1.804687,-0.515625 1.804687,-1.5703125 v -4.9101562 z m 1.828125,-1.734375 c 0,-0.4335937 -0.351562,-0.7851562 -0.773437,-0.7851562 -0.433594,0 -0.785157,0.3515625 -0.785157,0.7851562 0,0.421875 0.351563,0.7734375 0.785157,0.7734375 0.421875,0 0.773437,-0.3515625 0.773437,-0.7734375 z m 6.243164,3.9726563 c 0,-1.3359375 -0.914062,-2.34375 -2.542969,-2.34375 -1.628906,0 -2.542968,1.0195312 -2.542968,2.34375 0,1.2304687 0.878906,2.22656245 2.542968,2.22656245 1.675782,0 2.542969,-1.0078125 2.542969,-2.22656245 z m -2.542969,1.82812495 c -1.265625,0 -1.265625,-1.07812495 -1.265625,-1.94531245 0,-0.4453125 0,-0.9492188 0.164063,-1.2890625 0.199219,-0.375 0.609375,-0.5742188 1.101562,-0.5742188 0.421875,0 0.832032,0.1523438 1.054688,0.5039063 0.210937,0.3398437 0.210937,0.890625 0.210937,1.359375 0,0.8671875 0,1.94531245 -1.265625,1.94531245 z m 5.094727,-4.14843745 -1.722656,0.082031 v 0.46875 c 0.585937,0 0.65625,0 0.65625,0.3867188 v 3.0820312 h -0.691407 v 0.46875 c 0.304688,-0.01171875 0.796875,-0.03515625 1.21875,-0.03515625 0.292969,0 0.808594,0.0234375 1.160157,0.03515625 v -0.46875 h -0.621094 z m 0.105469,-1.6523438 c 0,-0.4453125 -0.363282,-0.7851562 -0.773438,-0.7851562 -0.433594,0 -0.785156,0.3515625 -0.785156,0.7851562 0,0.421875 0.351562,0.7734375 0.785156,0.7734375 0.410156,0 0.773438,-0.3398437 0.773438,-0.7734375 z m 1.986328,2.5898438 v 3.0820312 h -0.691406 v 0.46875 c 0.28125,-0.01171875 0.878906,-0.03515625 1.253906,-0.03515625 0.398437,0 0.984375,0.0234375 1.253906,0.03515625 v -0.46875 H 31.171813 V -2.553375 c 0,-1.078125 0.855468,-1.5703125 1.476562,-1.5703125 0.339844,0 0.550781,0.2109375 0.550781,0.9726563 v 2.6835937 h -0.679687 v 0.46875 c 0.269531,-0.01171875 0.867187,-0.03515625 1.253906,-0.03515625 0.386719,0 0.972656,0.0234375 1.253906,0.03515625 v -0.46875 h -0.691406 v -2.578125 c 0,-1.0429687 -0.539062,-1.4414062 -1.535156,-1.4414062 -0.949219,0 -1.476563,0.5742187 -1.746094,1.078125 v -1.078125 l -1.710937,0.082031 v 0.46875 c 0.621093,0 0.691406,0 0.691406,0.386719 z M 35.9765,-3.9479062 v 2.71875 c 0,1.0664062 0.867188,1.28906245 1.570313,1.28906245 0.75,0 1.207031,-0.5625 1.207031,-1.28906245 V -1.7565 h -0.46875 v 0.5039063 c 0,0.67968745 -0.316406,0.91406245 -0.597656,0.91406245 -0.585938,0 -0.585938,-0.6328125 -0.585938,-0.86718745 v -2.7421875 h 1.464844 v -0.46875 H 37.1015 v -1.9101563 h -0.457031 c -0.01172,0.9960938 -0.503906,1.9804688 -1.488281,2.015625 v 0.3632813 z m 0,0"
       style="fill:#000000;fill-opacity:1;fill-rule:nonzero;stroke:none"
       aria-label="Disjoint"
       transform="matrix(1.3333333,0,0,1.3333333,106.28133,26.092)" />
    <path
       id="path3"
       d="m 85.04042,70.867 c 0,15.65572 -12.6911,28.34682 -28.3468,28.34682 -15.65572,0 -28.34682,-12.6911 -28.34682,-28.34682 0,-15.6557 12.6911,-28.3468 28.34682,-28.3468 15.6557,0 28.3468,12.6911 28.3468,28.3468 z"
       style="fill:none;stroke:#000000;stroke-width:0.3985;stroke-linecap:butt;stroke-linejoin:miter;stroke-miterlimit:10;stroke-dasharray:none;stroke-opacity:1"
       transform="matrix(1.3333333,0,0,-1.3333333,0.26533333,189.24267)" />
    <path
       id="path4"
       d="m 3.9611875,-6.9375 c -0.046875,-0.1289062 -0.070312,-0.1992187 -0.2226562,-0.1992187 -0.1640625,0 -0.1875,0.058594 -0.2460938,0.1992187 l -2.0625,5.96484375 C 1.2541563,-0.46875 0.85571875,-0.31640625 0.31665625,-0.3046875 V 0 c 0.234375,-0.01171875 0.65625,-0.03515625 1.01953125,-0.03515625 0.3046875,0 0.8203125,0.0234375 1.1484375,0.03515625 v -0.3046875 c -0.5039062,0 -0.75,-0.2578125 -0.75,-0.515625 0,-0.0234375 0.011719,-0.12890625 0.023437,-0.140625 l 0.4570313,-1.3125 h 2.460938 L 5.203375,-0.75 c 0.011719,0.046875 0.023437,0.10546875 0.023437,0.140625 0,0.3046875 -0.5507812,0.3046875 -0.8203125,0.3046875 V 0 C 4.758062,-0.03515625 5.461187,-0.03515625 5.836187,-0.03515625 6.2697808,-0.03515625 6.726812,-0.0234375 7.1369683,0 V -0.3046875 H 6.9611875 c -0.5976562,0 -0.7382812,-0.0703125 -0.84375,-0.3984375 z m -0.5273437,1.125 1.125,3.234375 H 2.3205625 Z m 0,0"
       style="fill:#000000;fill-opacity:1;fill-rule:nonzero;stroke:none"
       aria-label="A"
       transform="matrix(1.3333333,0,0,1.3333333,70.874667,52)" />
    <path
       id="path5"
       d="m 85.04042,70.867 c 0,15.65572 -12.6911,28.34682 -28.3468,28.34682 -15.65572,0 -28.34682,-12.6911 -28.34682,-28.34682 0,-15.6557 12.6911,-28.3468 28.34682,-28.3468 15.6557,0 28.3468,12.6911 28.3468,28.3468 z"
       style="fill:#b3e6fa;fill-opacity:1;fill-rule:nonzero;stroke:none"
       transform="matrix(1.3333333,0,0,-1.3333333,0.26533333,189.24267)" />
    <path
       id="path6"
       d="m 170.08086,70.867 c 0,15.65572 -12.6911,28.34682 -28.34682,28.34682 -15.65572,0 -28.3468,-12.6911 -28.3468,-28.34682 0,-15.6557 12.69108,-28.3468 28.3468,-28.3468 15.65572,0 28.34682,12.6911 28.34682,28.3468 z"
       style="fill:none;stroke:#000000;stroke-width:0.3985;stroke-linecap:butt;stroke-linejoin:miter;stroke-miterlimit:10;stroke-dasharray:none;stroke-opacity:1"
       transform="matrix(1.3333333,0,0,-1.3333333,0.26533333,189.24267)" />
    <path
       id="path7"
       d="M 2.2161406,-3.6445313 V -6.09375 c 0,-0.328125 0.011719,-0.3984375 0.4804688,-0.3984375 h 1.2421875 c 0.9609375,0 1.3125,0.84375 1.3125,1.3710938 0,0.6328125 -0.4921875,1.4765624 -1.59375,1.4765624 z m 2.34375,0.09375 C 5.5325469,-3.75 6.2122344,-4.3828125 6.2122344,-5.1210937 c 0,-0.8671875 -0.9140625,-1.6875 -2.203125,-1.6875 H 0.36457813 v 0.3164062 h 0.234375 c 0.76171877,0 0.78515627,0.1054688 0.78515627,0.46875 v 5.25 c 0,0.3515625 -0.023437,0.46875 -0.78515627,0.46875 h -0.234375 V 0 H 4.2669219 c 1.3242187,0 2.2148437,-0.890625 2.2148437,-1.828125 0,-0.8671875 -0.8085937,-1.6054688 -1.921875,-1.7226563 z m -0.609375,3.2460938 H 2.6966094 c -0.46875,0 -0.4804688,-0.0703125 -0.4804688,-0.3984375 v -2.71875 h 1.875 c 0.984375,0 1.3945313,0.9257812 1.3945313,1.59375 0,0.703125 -0.515625,1.5234375 -1.5351563,1.5234375 z m 0,0"
       style="fill:#000000;fill-opacity:1;fill-rule:nonzero;stroke:none"
       aria-label="B"
       transform="matrix(1.3333333,0,0,1.3333333,184.53733,52)" />
    <g
       id="g7"
       aria-label="A∩B=A"
       transform="matrix(1.3333333,0,0,1.3333333,99.330667,160.95867)">
      <path
         id="path8"
         d="m 4.7236797,-6.6926328 c -0.1054688,-0.2578125 -0.234375,-0.2578125 -0.3984375,-0.2578125 -0.28125,0 -0.3164063,0.070312 -0.3867188,0.2578125 l -2.4726562,5.98828124 c -0.058594,0.15234375 -0.09375,0.234375 -0.84375001,0.234375 h -0.2109375 v 0.46875 c 0.375,-0.01171875 0.85546871,-0.03515625 1.16015621,-0.03515625 0.3867188,0 0.9492188,0 1.3242188,0.03515625 v -0.46875 c -0.023437,0 -0.890625,0 -0.890625,-0.12890625 0,-0.0117188 0.023437,-0.10546875 0.035156,-0.1171875 L 2.5439922,-1.9231016 h 2.671875 l 0.5976562,1.45312504 H 4.8643047 v 0.46875 c 0.375,-0.03515625 1.3242187,-0.03515625 1.7460937,-0.03515625 0.3984375,0 1.2773438,0 1.6289063,0.03515625 v -0.46875 H 7.2783672 Z m -0.84375,1.5351562 1.1367187,2.765625 H 2.7432109 Z m 0,0"
         style="fill:#000000;fill-opacity:1;fill-rule:nonzero;stroke:none" />
      <path
         id="path9"
         d="m 16.955125,-3.7863828 c 0,-1.5117188 -1.523438,-2.1679688 -2.765625,-2.1679688 -1.289063,0 -2.765625,0.6914063 -2.765625,2.15625 v 3.65625004 c 0,0.17578125 0,0.36328125 0.199219,0.36328125 0.199218,0 0.199218,-0.1875 0.199218,-0.36328125 V -3.7512266 c 0,-1.4882812 1.617188,-1.8046875 2.367188,-1.8046875 0.445312,0 1.078125,0.082031 1.605469,0.421875 0.761718,0.4921875 0.761718,1.125 0.761718,1.3945313 v 3.59765624 c 0,0.17578125 0,0.36328125 0.199219,0.36328125 0.199219,0 0.199219,-0.1875 0.199219,-0.36328125 z m 0,0"
         style="fill:#000000;fill-opacity:1;fill-rule:nonzero;stroke:none" />
      <path
         id="path10"
         d="m 22.492234,-3.7395078 v -2.625 h 1.816407 c 1.007812,0 1.183593,0.7851562 1.183593,1.2421875 0,0.7734375 -0.480468,1.3828125 -1.441406,1.3828125 z m 2.695313,0.1757812 c 1.078125,-0.1875 1.722656,-0.7851562 1.722656,-1.5585937 0,-0.9140625 -0.867187,-1.7109375 -2.472656,-1.7109375 h -4.324219 v 0.46875 h 1.078125 v 5.89453124 h -1.078125 v 0.46875 h 4.628906 c 1.652344,0 2.484375,-0.87890625 2.484375,-1.85156254 0,-0.9609375 -0.855468,-1.6289062 -2.039062,-1.7109375 z m -0.855469,3.09375004 H 22.492234 V -3.3762266 h 1.933594 c 0.199219,0 0.667969,0 1.007813,0.421875 0.328125,0.421875 0.328125,0.984375 0.328125,1.0898438 0,0.1171875 0,1.39453124 -1.429688,1.39453124 z m 0,0"
         style="fill:#000000;fill-opacity:1;fill-rule:nonzero;stroke:none" />
      <path
         id="path11"
         d="m 37.489305,-3.2590391 c 0.152343,0 0.339843,0 0.339843,-0.1992187 0,-0.1992188 -0.1875,-0.1992188 -0.328125,-0.1992188 H 31.53618 c -0.140625,0 -0.328125,0 -0.328125,0.1992188 0,0.1992187 0.1875,0.1992187 0.339843,0.1992187 z m 0.01172,1.9335938 c 0.140625,0 0.328125,0 0.328125,-0.1992188 0,-0.1992187 -0.1875,-0.1992187 -0.339843,-0.1992187 H 31.5479 c -0.152343,0 -0.339843,0 -0.339843,0.1992187 0,0.1992188 0.1875,0.1992188 0.328125,0.1992188 z m 0,0"
         style="fill:#000000;fill-opacity:1;fill-rule:nonzero;stroke:none" />
      <path
         id="path12"
         d="m 45.888719,-6.6926328 c -0.105469,-0.2578125 -0.234375,-0.2578125 -0.398438,-0.2578125 -0.28125,0 -0.316406,0.070312 -0.386719,0.2578125 l -2.472656,5.98828124 c -0.05859,0.15234375 -0.09375,0.234375 -0.84375,0.234375 h -0.210937 v 0.46875 c 0.375,-0.01171875 0.855468,-0.03515625 1.160156,-0.03515625 0.386719,0 0.949219,0 1.324219,0.03515625 v -0.46875 c -0.02344,0 -0.890625,0 -0.890625,-0.12890625 0,-0.0117188 0.02344,-0.10546875 0.03516,-0.1171875 l 0.503906,-1.20703129 h 2.671875 l 0.597656,1.45312504 h -0.949218 v 0.46875 c 0.375,-0.03515625 1.324218,-0.03515625 1.746093,-0.03515625 0.398438,0 1.277344,0 1.628907,0.03515625 v -0.46875 H 48.44341 Z m -0.84375,1.5351562 1.136718,2.765625 H 43.90825 Z m 0,0"
         style="fill:#000000;fill-opacity:1;fill-rule:nonzero;stroke:none" />
    </g>
    <path
       id="path13"
       d="M 226.77448,0 V 141.73404 H 425.20213 V 0 Z"
       style="fill:none;stroke:#000000;stroke-width:0.3985;stroke-linecap:butt;stroke-linejoin:miter;stroke-miterlimit:10;stroke-dasharray:none;stroke-opacity:1"
       transform="matrix(1.3333333,0,0,-1.3333333,0.26533333,189.24267)" />
    <path
       id="path14"
       d="m 7.9558828,-3.3736875 c 0,-2.15625 -1.4414062,-3.5625 -3.65625,-3.5625 -2.2734375,0 -3.66796874,1.4648438 -3.66796874,3.5625 0,2.0625 1.39453124,3.48046875 3.65625004,3.48046875 2.296875,0 3.6679687,-1.44140625 3.6679687,-3.48046875 z M 4.2879141,-0.303375 c -0.5859375,0 -1.3125,-0.28125 -1.7226563,-1.0429687 -0.328125,-0.609375 -0.4101562,-1.3242188 -0.4101562,-2.1796875 0,-0.6328125 0.035156,-1.4882813 0.46875,-2.15625 0.4101562,-0.609375 1.078125,-0.8554688 1.6640625,-0.8554688 0.6445312,0 1.3242187,0.2695313 1.7226562,0.9257813 0.3867188,0.6445312 0.421875,1.40625 0.421875,2.0859375 0,0.703125 -0.035156,1.5820312 -0.4570312,2.2734375 -0.4453125,0.72656245 -1.1484375,0.9492187 -1.6875,0.9492187 z m 9.3574219,-3.4453125 c 0.05859,-0.140625 0.105469,-0.1992187 0.738281,-0.1992187 v -0.46875 c -0.246094,0.011719 -0.539062,0.023437 -0.785156,0.023437 -0.246094,0 -0.703125,-0.023437 -0.902344,-0.023437 v 0.46875 c 0.1875,0 0.46875,0.023437 0.46875,0.1054687 0,0.011719 -0.01172,0.023437 -0.04687,0.1171875 l -1.160156,2.4960938 -1.253906,-2.71875 h 0.527343 v -0.46875 c -0.328125,0.011719 -1.21875,0.023437 -1.230468,0.023437 -0.2812503,0 -0.7265628,-0.023437 -1.1367191,-0.023437 v 0.46875 h 0.6445313 l 1.7343748,3.7382812 c 0.117188,0.24609375 0.257813,0.24609375 0.386719,0.24609375 0.164062,0 0.269531,-0.0234375 0.363281,-0.234375 z m 5.293945,1.5820313 c 0.210938,0 0.316406,0 0.316406,-0.2695313 0,-0.3164062 -0.05859,-1.0429687 -0.5625,-1.5351562 -0.363281,-0.3632813 -0.890625,-0.5390625 -1.582031,-0.5390625 -1.59375,0 -2.460937,1.0195312 -2.460937,2.2734375 0,1.33593745 0.996093,2.29687495 2.601562,2.29687495 1.570313,0 2.003906,-1.0546875 2.003906,-1.21874995 0,-0.1875 -0.1875,-0.1875 -0.234375,-0.1875 -0.175781,0 -0.199218,0.046875 -0.257812,0.2109375 -0.210938,0.4804687 -0.773438,0.79687495 -1.417969,0.79687495 -1.40625,0 -1.417969,-1.32421875 -1.417969,-1.82812495 z m -3.011719,-0.328125 c 0.02344,-0.3984375 0.03516,-0.8085938 0.234375,-1.1367188 0.269532,-0.3984375 0.667969,-0.515625 0.949219,-0.515625 1.171875,0 1.183594,1.3007813 1.195313,1.6523438 z M 21.614086,-3.35025 v -1.1367187 l -1.664063,0.082031 v 0.46875 c 0.621094,0 0.691407,0 0.691407,0.3867188 v 3.0820312 h -0.691407 v 0.46875 c 0.351563,-0.01171875 0.796875,-0.03515625 1.265625,-0.03515625 0.375,0 1.007813,0 1.371094,0.03515625 v -0.46875 h -0.867187 v -1.7460937 c 0,-0.6914063 0.246093,-1.9101563 1.242187,-1.9101563 -0.01172,0.011719 -0.1875,0.1757813 -0.1875,0.4570313 0,0.4101562 0.316406,0.609375 0.609375,0.609375 0.292969,0 0.609375,-0.2109375 0.609375,-0.609375 0,-0.5273438 -0.539062,-0.8203125 -1.054687,-0.8203125 -0.703125,0 -1.101563,0.5039062 -1.324219,1.1367189 z m 4.916016,-3.5625 -1.757813,0.082031 v 0.46875 c 0.621094,0 0.691406,0 0.691406,0.3867187 v 5.5078125 h -0.691406 v 0.46875 c 0.316406,-0.01171875 0.796875,-0.03515625 1.230469,-0.03515625 0.421875,0 0.878906,0.0234375 1.21875,0.03515625 v -0.46875 h -0.691406 z m 4.68164,6.15234375 c 0,0.3046875 0,0.76171875 1.03125,0.76171875 h 0.480469 c 0.199219,0 0.316406,0 0.316406,-0.234375 0,-0.234375 -0.128906,-0.234375 -0.257812,-0.234375 C 32.17268,-0.4791563 32.17268,-0.6080625 32.17268,-0.83071875 V -2.97525 c 0,-0.890625 -0.703125,-1.5351562 -2.191407,-1.5351562 -0.5625,0 -1.78125,0.035156 -1.78125,0.9140625 0,0.4453125 0.351563,0.6328125 0.621094,0.6328125 0.304688,0 0.621094,-0.2109375 0.621094,-0.6328125 0,-0.2929688 -0.1875,-0.46875 -0.210938,-0.4921875 0.28125,-0.058594 0.597657,-0.058594 0.714844,-0.058594 0.75,0 1.089844,0.4101563 1.089844,1.171875 v 0.3398438 c -0.703125,0.023437 -3.234375,0.1171875 -3.234375,1.5585937 0,0.9609375 1.242187,1.13671875 1.921875,1.13671875 0.796875,0 1.265625,-0.41015625 1.488281,-0.8203123 z M 31.035961,-2.3307187 V -1.3815 c 0,0.94921875 -0.914063,1.078125 -1.160156,1.078125 -0.503907,0 -0.902344,-0.33984375 -0.902344,-0.7851562 0,-1.0664063 1.570312,-1.2070313 2.0625,-1.2421875 z m 4.209961,-0.9492188 c 0,-0.1875 0.01172,-0.1992187 0.152344,-0.3398437 0.398437,-0.3984375 0.914062,-0.46875 1.136718,-0.46875 0.667969,0 1.21875,0.609375 1.21875,1.8632812 0,1.40625 -0.691406,1.921875 -1.347656,1.921875 -0.128906,0 -0.597656,0 -1.054687,-0.52734375 -0.105469,-0.12890625 -0.105469,-0.140625 -0.105469,-0.32812495 z m 0,2.89453125 c 0.433594,0.3515625 0.867187,0.4453125 1.277344,0.4453125 1.488281,0 2.507812,-0.890625 2.507812,-2.28515625 0,-1.3242187 -0.902344,-2.2617187 -2.34375,-2.2617187 -0.738281,0 -1.277344,0.3164062 -1.5,0.4921875 v -0.4921875 l -1.769531,0.082031 v 0.46875 c 0.621094,0 0.691406,0 0.691406,0.3867188 v 5.015625 h -0.691406 v 0.46875 c 0.28125,-0.011719 0.878906,-0.035156 1.265625,-0.035156 0.386719,0 0.972656,0.023437 1.253906,0.035156 v -0.46875 h -0.691406 z m 0,0"
       style="fill:#000000;fill-opacity:1;fill-rule:nonzero;stroke:none"
       aria-label="Overlap"
       transform="matrix(1.3333333,0,0,1.3333333,389.732,26.092)" />
    <path
       id="path15"
       d="m 325.9883,70.867 c 0,15.65572 -12.6911,28.34682 -28.3468,28.34682 -15.65572,0 -28.34682,-12.6911 -28.34682,-28.34682 0,-15.6557 12.6911,-28.3468 28.34682,-28.3468 15.6557,0 28.3468,12.6911 28.3468,28.3468 z"
       style="fill:none;stroke:#000000;stroke-width:0.3985;stroke-linecap:butt;stroke-linejoin:miter;stroke-miterlimit:10;stroke-dasharray:none;stroke-opacity:1"
       transform="matrix(1.3333333,0,0,-1.3333333,0.26533333,189.24267)" />
    <path
       id="path16"
       d="m 3.9595469,-6.9375 c -0.046875,-0.1289062 -0.070312,-0.1992187 -0.2226563,-0.1992187 -0.1640625,0 -0.1875,0.058594 -0.2460937,0.1992187 l -2.0625,5.96484375 C 1.2525156,-0.46875 0.85407813,-0.31640625 0.31501563,-0.3046875 V 0 c 0.234375,-0.01171875 0.65625,-0.03515625 1.01953127,-0.03515625 0.3046875,0 0.8203125,0.0234375 1.1484375,0.03515625 v -0.3046875 c -0.5039063,0 -0.75,-0.2578125 -0.75,-0.515625 0,-0.0234375 0.011719,-0.12890625 0.023437,-0.140625 l 0.4570312,-1.3125 h 2.460938 L 5.2017344,-0.75 c 0.011719,0.046875 0.023437,0.10546875 0.023437,0.140625 0,0.3046875 -0.5507813,0.3046875 -0.8203125,0.3046875 V 0 c 0.3515625,-0.03515625 1.0546875,-0.03515625 1.4296875,-0.03515625 0.4335937,0 0.890625,0.01171875 1.3007812,0.03515625 V -0.3046875 H 6.9595469 c -0.5976563,0 -0.7382813,-0.0703125 -0.84375,-0.3984375 z m -0.5273438,1.125 1.125,3.234375 H 2.3189219 Z m 0,0"
       style="fill:#000000;fill-opacity:1;fill-rule:nonzero;stroke:none"
       aria-label="A"
       transform="matrix(1.3333333,0,0,1.3333333,392.13467,52)" />
    <path
       id="path17"
       d="m 368.50851,70.867 c 0,15.65572 -12.69108,28.34682 -28.3468,28.34682 -15.65571,0 -28.34681,-12.6911 -28.34681,-28.34682 0,-15.6557 12.6911,-28.3468 28.34681,-28.3468 15.65572,0 28.3468,12.6911 28.3468,28.3468 z"
       style="fill:none;stroke:#000000;stroke-width:0.3985;stroke-linecap:butt;stroke-linejoin:miter;stroke-miterlimit:10;stroke-dasharray:none;stroke-opacity:1"
       transform="matrix(1.3333333,0,0,-1.3333333,0.26533333,189.24267)" />
    <path
       id="path18"
       d="M 2.2159453,-3.6445313 V -6.09375 c 0,-0.328125 0.011719,-0.3984375 0.4804688,-0.3984375 h 1.2421875 c 0.9609375,0 1.3125,0.84375 1.3125,1.3710938 0,0.6328125 -0.4921875,1.4765624 -1.59375,1.4765624 z m 2.34375,0.09375 C 5.5323516,-3.75 6.2120391,-4.3828125 6.2120391,-5.1210937 c 0,-0.8671875 -0.9140625,-1.6875 -2.203125,-1.6875 H 0.36438281 v 0.3164062 h 0.234375 c 0.76171879,0 0.78515629,0.1054688 0.78515629,0.46875 v 5.25 c 0,0.3515625 -0.023437,0.46875 -0.78515629,0.46875 h -0.234375 V 0 H 4.2667266 c 1.3242187,0 2.2148437,-0.890625 2.2148437,-1.828125 0,-0.8671875 -0.8085937,-1.6054688 -1.921875,-1.7226563 z m -0.609375,3.2460938 H 2.6964141 c -0.46875,0 -0.4804688,-0.0703125 -0.4804688,-0.3984375 v -2.71875 h 1.875 c 0.984375,0 1.3945313,0.9257812 1.3945313,1.59375 0,0.703125 -0.515625,1.5234375 -1.5351563,1.5234375 z m 0,0"
       style="fill:#000000;fill-opacity:1;fill-rule:nonzero;stroke:none"
       aria-label="B"
       transform="matrix(1.3333333,0,0,1.3333333,449.104,52)" />
    <g
       id="g18"
       aria-label="A∩B"
       transform="matrix(1.3333333,0,0,1.3333333,397.42533,160.95867)">
      <path
         id="path19"
         d="m 4.7229922,-6.6926328 c -0.1054688,-0.2578125 -0.234375,-0.2578125 -0.3984375,-0.2578125 -0.28125,0 -0.3164063,0.070312 -0.3867188,0.2578125 l -2.4726562,5.98828124 c -0.058594,0.15234375 -0.09375,0.234375 -0.84375001,0.234375 h -0.2109375 v 0.46875 c 0.375,-0.01171875 0.85546871,-0.03515625 1.16015621,-0.03515625 0.3867188,0 0.9492188,0 1.3242188,0.03515625 v -0.46875 c -0.023437,0 -0.890625,0 -0.890625,-0.12890625 0,-0.0117188 0.023437,-0.10546875 0.035156,-0.1171875 L 2.5433047,-1.9231016 h 2.671875 l 0.5976562,1.45312504 H 4.8636172 v 0.46875 c 0.375,-0.03515625 1.3242187,-0.03515625 1.7460937,-0.03515625 0.3984375,0 1.2773438,0 1.6289063,0.03515625 v -0.46875 H 7.2776797 Z m -0.84375,1.5351562 1.1367187,2.765625 H 2.7425234 Z m 0,0"
         style="fill:#000000;fill-opacity:1;fill-rule:nonzero;stroke:none" />
      <path
         id="path20"
         d="m 16.954438,-3.7863828 c 0,-1.5117188 -1.523438,-2.1679688 -2.765625,-2.1679688 -1.289063,0 -2.765625,0.6914063 -2.765625,2.15625 v 3.65625004 c 0,0.17578125 0,0.36328125 0.199218,0.36328125 0.199219,0 0.199219,-0.1875 0.199219,-0.36328125 V -3.7512266 c 0,-1.4882812 1.617188,-1.8046875 2.367188,-1.8046875 0.445312,0 1.078125,0.082031 1.605468,0.421875 0.761719,0.4921875 0.761719,1.125 0.761719,1.3945313 v 3.59765624 c 0,0.17578125 0,0.36328125 0.199219,0.36328125 0.199219,0 0.199219,-0.1875 0.199219,-0.36328125 z m 0,0"
         style="fill:#000000;fill-opacity:1;fill-rule:nonzero;stroke:none" />
      <path
         id="path21"
         d="m 22.491547,-3.7395078 v -2.625 h 1.816406 c 1.007813,0 1.183594,0.7851562 1.183594,1.2421875 0,0.7734375 -0.480469,1.3828125 -1.441406,1.3828125 z m 2.695312,0.1757812 c 1.078125,-0.1875 1.722657,-0.7851562 1.722657,-1.5585937 0,-0.9140625 -0.867188,-1.7109375 -2.472657,-1.7109375 h -4.324218 v 0.46875 h 1.078125 v 5.89453124 h -1.078125 v 0.46875 h 4.628906 c 1.652344,0 2.484375,-0.87890625 2.484375,-1.85156254 0,-0.9609375 -0.855469,-1.6289062 -2.039063,-1.7109375 z m -0.855468,3.09375004 H 22.491547 V -3.3762266 h 1.933594 c 0.199218,0 0.667968,0 1.007812,0.421875 0.328125,0.421875 0.328125,0.984375 0.328125,1.0898438 0,0.1171875 0,1.39453124 -1.429687,1.39453124 z m 0,0"
         style="fill:#000000;fill-opacity:1;fill-rule:nonzero;stroke:none" />
    </g>
    <g
       id="g23"
       clip-path="url(#clipPath24)">
      <path
         d="m 325.9883,70.867 c 0,15.65572 -12.6911,28.34682 -28.3468,28.34682 -15.65572,0 -28.34682,-12.6911 -28.34682,-28.34682 0,-15.6557 12.6911,-28.3468 28.34682,-28.3468 15.6557,0 28.3468,12.6911 28.3468,28.3468 z"
         style="fill:#b3e6fa;fill-opacity:1;fill-rule:nonzero;stroke:none"
         transform="matrix(1.3333333,0,0,-1.3333333,0.26533333,189.24267)"
         clip-path="url(#clipPath22)"
         id="path23" />
    </g>
  </g>
</svg>
