<?xml version="1.0" encoding="UTF-8" standalone="no"?>
<!-- Created with Inkscape (http://www.inkscape.org/) -->

<svg
   version="1.1"
   id="svg1"
   width="567.18854"
   height="151.43536"
   viewBox="0 0 567.18854 151.43536"
   xmlns="http://www.w3.org/2000/svg"
   xmlns:svg="http://www.w3.org/2000/svg">
  <defs
     id="defs1" />
  <g
     id="g1"
     transform="translate(-5.000015e-4,-0.01080712)">
    <path
       id="path1"
       d="m 1.4651719,-6.3619609 v 5.89453121 H 0.38704687 v 0.46875 H 4.6878281 c 1.9570313,0 3.4453125,-1.23046871 3.4453125,-3.35156251 0,-2.1914062 -1.4882812,-3.4804687 -3.4570312,-3.4804687 H 0.38704687 v 0.46875 z m 1.359375,5.89453121 V -6.3619609 h 1.453125 c 0.65625,0 1.4765625,0.1875 1.96875,0.8789062 0.3515625,0.515625 0.4335937,1.1953125 0.4335937,2.1210938 0,1.078125 -0.1289062,1.6054687 -0.4453125,2.0625 -0.4804687,0.66796871 -1.3476562,0.83203121 -1.9570312,0.83203121 z m 8.1884761,-4.01953121 -1.7226558,0.082031 v 0.46875 c 0.5859375,0 0.65625,0 0.65625,0.3867188 v 3.08203121 H 9.2552109 v 0.46875 c 0.3046875,-0.01171875 0.7968751,-0.03515625 1.2187501,-0.03515625 0.292969,0 0.808594,0.0234375 1.160156,0.03515625 v -0.46875 h -0.621094 z m 0.105469,-1.6523438 c 0,-0.4453125 -0.363281,-0.7851562 -0.773437,-0.7851562 -0.4335941,0 -0.7851566,0.3515625 -0.7851566,0.7851562 0,0.421875 0.3515625,0.7734375 0.7851566,0.7734375 0.410156,0 0.773437,-0.3398437 0.773437,-0.7734375 z m 2.947266,3.2109375 c -0.363281,-0.070312 -1.007813,-0.1757812 -1.007813,-0.6445312 0,-0.6210938 0.925782,-0.6210938 1.113282,-0.6210938 0.75,0 1.125,0.2929688 1.171875,0.84375 0.01172,0.140625 0.02344,0.1992188 0.234375,0.1992188 0.234375,0 0.234375,-0.058594 0.234375,-0.28125 v -0.796875 c 0,-0.1875 0,-0.28125 -0.175782,-0.28125 -0.04687,0 -0.05859,0 -0.445312,0.1875 -0.269531,-0.1289063 -0.609375,-0.1875 -1.007813,-0.1875 -0.304687,0 -1.839843,0 -1.839843,1.3007812 0,0.3984375 0.199218,0.6679688 0.398437,0.84375 0.398438,0.3398438 0.785156,0.4101563 1.546875,0.5390625 0.363281,0.070312 1.101563,0.1992188 1.101563,0.7851563 0,0.73828121 -0.914063,0.73828121 -1.125,0.73828121 -1.066407,0 -1.324219,-0.72656251 -1.441407,-1.14843751 -0.04687,-0.140625 -0.09375,-0.140625 -0.234375,-0.140625 -0.246093,0 -0.246093,0.058594 -0.246093,0.2929688 v 1.07812496 c 0,0.1875 0,0.28125 0.1875,0.28125 0.07031,0 0.08203,0 0.292968,-0.15234375 0.01172,0 0.234375,-0.140625 0.257813,-0.1640625 0.457031,0.31640625 0.984375,0.31640625 1.183594,0.31640625 0.304687,0 1.839843,0 1.839843,-1.45312496 0,-0.4335938 -0.199218,-0.7734375 -0.550781,-1.0546875 -0.386719,-0.2929688 -0.703125,-0.3515625 -1.488281,-0.4804688 z m 3.251953,-1.4765625 v 0.46875 c 0.164062,0 0.386719,0 0.527344,0.023437 0.222656,0.035156 0.222656,0.1640625 0.222656,0.375 v 3.96093751 c 0,0.4921875 -0.152344,1.20703129 -0.75,1.20703129 -0.152344,0 -0.234375,-0.011719 -0.386719,-0.058594 0.1875,-0.140625 0.246094,-0.3398437 0.246094,-0.4921875 0,-0.35156249 -0.257813,-0.62109374 -0.621094,-0.62109374 -0.375,0 -0.632812,0.26953125 -0.632812,0.63281254 0,0.5625 0.597656,0.9023437 1.417968,0.9023437 0.855469,0 1.804688,-0.515625 1.804688,-1.57031249 V -4.4869609 Z m 1.828125,-1.734375 c 0,-0.4335937 -0.351563,-0.7851562 -0.773438,-0.7851562 -0.433593,0 -0.785156,0.3515625 -0.785156,0.7851562 0,0.421875 0.351563,0.7734375 0.785156,0.7734375 0.421875,0 0.773438,-0.3515625 0.773438,-0.7734375 z M 25.389,-2.1666484 c 0,-1.3359375 -0.914063,-2.34375 -2.542969,-2.34375 -1.628906,0 -2.542969,1.0195312 -2.542969,2.34375 0,1.23046871 0.878907,2.22656246 2.542969,2.22656246 1.675781,0 2.542969,-1.0078125 2.542969,-2.22656246 z m -2.542969,1.82812496 c -1.265625,0 -1.265625,-1.07812496 -1.265625,-1.94531246 0,-0.4453125 0,-0.9492188 0.164063,-1.2890625 0.199218,-0.375 0.609375,-0.5742188 1.101562,-0.5742188 0.421875,0 0.832031,0.1523438 1.054688,0.5039063 0.210937,0.3398437 0.210937,0.890625 0.210937,1.359375 0,0.8671875 0,1.94531246 -1.265625,1.94531246 z m 5.097656,-4.14843746 -1.722656,0.082031 v 0.46875 c 0.585938,0 0.65625,0 0.65625,0.3867188 v 3.08203121 h -0.691406 v 0.46875 c 0.304687,-0.01171875 0.796875,-0.03515625 1.21875,-0.03515625 0.292969,0 0.808594,0.0234375 1.160156,0.03515625 v -0.46875 h -0.621094 z m 0.105469,-1.6523438 c 0,-0.4453125 -0.363281,-0.7851562 -0.773437,-0.7851562 -0.433594,0 -0.785157,0.3515625 -0.785157,0.7851562 0,0.421875 0.351563,0.7734375 0.785157,0.7734375 0.410156,0 0.773437,-0.3398437 0.773437,-0.7734375 z m 1.986328,2.5898438 v 3.08203121 h -0.691406 v 0.46875 c 0.28125,-0.01171875 0.878906,-0.03515625 1.253906,-0.03515625 0.398438,0 0.984375,0.0234375 1.253907,0.03515625 v -0.46875 H 31.172203 V -2.5533672 c 0,-1.078125 0.855469,-1.5703125 1.476563,-1.5703125 0.339843,0 0.550781,0.2109375 0.550781,0.9726563 v 2.68359371 h -0.679688 v 0.46875 c 0.269532,-0.01171875 0.867188,-0.03515625 1.253907,-0.03515625 0.386718,0 0.972656,0.0234375 1.253906,0.03515625 v -0.46875 H 34.336266 V -3.0455547 c 0,-1.0429687 -0.539063,-1.4414062 -1.535157,-1.4414062 -0.949218,0 -1.476562,0.5742187 -1.746093,1.078125 v -1.078125 l -1.710938,0.082031 v 0.46875 c 0.621094,0 0.691406,0 0.691406,0.386719 z m 5.941407,-0.3984375 v 2.71875 c 0,1.06640621 0.867187,1.28906246 1.570312,1.28906246 0.75,0 1.207031,-0.5625 1.207031,-1.28906246 v -0.5273438 h -0.46875 v 0.5039063 c 0,0.67968746 -0.316406,0.91406246 -0.597656,0.91406246 -0.585937,0 -0.585937,-0.6328125 -0.585937,-0.86718746 v -2.7421875 h 1.464843 v -0.46875 h -1.464843 v -1.9101563 h -0.457032 c -0.01172,0.9960938 -0.503906,1.9804688 -1.488281,2.015625 v 0.3632813 z m 0,0"
       style="fill:#000000;fill-opacity:1;fill-rule:nonzero;stroke:none"
       aria-label="Disjoint"
       transform="matrix(1.3333333,0,0,1.3333333,106.148,17.869333)" />
    <path
       id="path2"
       d="m 85.04042,56.69362 c 0,15.6557 -12.6911,28.3468 -28.3468,28.3468 -15.65572,0 -28.34682,-12.6911 -28.34682,-28.3468 0,-15.65572 12.6911,-28.34682 28.34682,-28.34682 15.6557,0 28.3468,12.6911 28.3468,28.34682 z"
       style="fill:#fffbb3;fill-opacity:1;fill-rule:nonzero;stroke:#000000;stroke-width:0.79701;stroke-linecap:butt;stroke-linejoin:miter;stroke-miterlimit:10;stroke-dasharray:none;stroke-opacity:1"
       transform="matrix(1.3333333,0,0,-1.3333333,0.13333333,151.31333)" />
    <path
       id="path3"
       d="m 3.9622813,-6.9374531 c -0.046875,-0.1289063 -0.070312,-0.1992188 -0.2226563,-0.1992188 -0.1640625,0 -0.1875,0.058594 -0.2460937,0.1992188 l -2.0625,5.96484373 C 1.25525,-0.46870312 0.8568125,-0.31635937 0.31775,-0.30464062 V 4.6875e-5 C 0.552125,-0.01167187 0.974,-0.03510937 1.3372813,-0.03510937 c 0.3046875,0 0.8203125,0.0234375 1.1484375,0.035156245 V -0.30464062 c -0.5039063,0 -0.75,-0.2578125 -0.75,-0.515625 0,-0.0234375 0.011719,-0.12890625 0.023437,-0.140625 L 2.2161875,-2.2733906 H 4.677125 l 0.5273438,1.52343748 c 0.011719,0.046875 0.023437,0.10546875 0.023437,0.140625 0,0.3046875 -0.5507813,0.3046875 -0.8203125,0.3046875 V 4.6875e-5 c 0.351563,-0.035156245 1.054688,-0.035156245 1.429688,-0.035156245 0.4335937,0 0.890625,0.01171875 1.3007812,0.035156245 V -0.30464062 H 6.9622813 c -0.5976563,0 -0.7382813,-0.0703125 -0.84375,-0.3984375 z m -0.5273438,1.125 1.125,3.234375 H 2.3216563 Z m 0,0"
       style="fill:#000000;fill-opacity:1;fill-rule:nonzero;stroke:none"
       aria-label="A"
       transform="matrix(1.3333333,0,0,1.3333333,33.701333,43.664)" />
    <path
       id="path4"
       d="m 170.08086,56.69362 c 0,15.6557 -12.6911,28.3468 -28.34682,28.3468 -15.65572,0 -28.3468,-12.6911 -28.3468,-28.3468 0,-15.65572 12.69108,-28.34682 28.3468,-28.34682 15.65572,0 28.34682,12.6911 28.34682,28.34682 z"
       style="fill:#fffbb3;fill-opacity:1;fill-rule:nonzero;stroke:#000000;stroke-width:0.79701;stroke-linecap:butt;stroke-linejoin:miter;stroke-miterlimit:10;stroke-dasharray:none;stroke-opacity:1"
       transform="matrix(1.3333333,0,0,-1.3333333,0.13333333,151.31333)" />
    <path
       id="path5"
       d="m 2.2153125,-3.6444844 v -2.4492187 c 0,-0.328125 0.011719,-0.3984375 0.4804688,-0.3984375 h 1.2421875 c 0.9609375,0 1.3125,0.84375 1.3125,1.3710937 0,0.6328125 -0.4921875,1.4765625 -1.59375,1.4765625 z m 2.34375,0.09375 c 0.9726563,-0.1992187 1.6523438,-0.8320312 1.6523438,-1.5703125 0,-0.8671875 -0.9140625,-1.6875 -2.203125,-1.6875 H 0.36375 v 0.3164063 h 0.234375 c 0.7617188,0 0.7851563,0.1054687 0.7851563,0.46875 v 5.24999998 c 0,0.3515625 -0.023437,0.46875 -0.7851563,0.46875 H 0.36375 V 4.6875e-5 h 3.9023438 c 1.3242187,0 2.2148437,-0.890624995 2.2148437,-1.828124975 0,-0.8671875 -0.8085937,-1.6054688 -1.921875,-1.7226563 z m -0.609375,3.24609378 H 2.6957813 c -0.46875,0 -0.4804688,-0.0703125 -0.4804688,-0.3984375 V -3.4218281 h 1.875 c 0.984375,0 1.3945313,0.9257812 1.3945313,1.59375 0,0.703125 -0.515625,1.52343748 -1.5351563,1.52343748 z m 0,0"
       style="fill:#000000;fill-opacity:1;fill-rule:nonzero;stroke:none"
       aria-label="B"
       transform="matrix(1.3333333,0,0,1.3333333,147.64,43.664)" />
    <path
       id="path6"
       d="M 0,0 H 425.20213 M 0,28.3468 H 425.20213 M 0,56.69362 H 425.20213 M 0,85.04042 H 425.20213 M 0,113.37727 H 425.20213 M 0,0 V 113.38724 M 28.3468,0 V 113.38724 M 56.69362,0 V 113.38724 M 85.04042,0 V 113.38724 M 113.38724,0 V 113.38724 M 141.73404,0 V 113.38724 M 170.08086,0 V 113.38724 M 198.42766,0 V 113.38724 M 226.77448,0 V 113.38724 M 255.12128,0 V 113.38724 M 283.4681,0 V 113.38724 M 311.8149,0 V 113.38724 M 340.16171,0 V 113.38724 M 368.50851,0 V 113.38724 M 396.85533,0 V 113.38724 M 425.19218,0 v 113.38724"
       style="fill:none;stroke:#808080;stroke-width:0.19925;stroke-linecap:butt;stroke-linejoin:miter;stroke-miterlimit:10;stroke-dasharray:none;stroke-opacity:1"
       transform="matrix(1.3333333,0,0,-1.3333333,0.13333333,151.31333)" />
  </g>
</svg>
