<?xml version="1.0" encoding="UTF-8" standalone="no"?>
<!-- Created with Inkscape (http://www.inkscape.org/) -->

<svg
   version="1.1"
   id="svg1"
   width="529.39282"
   height="189.23111"
   viewBox="0 0 529.39282 189.23111"
   xmlns="http://www.w3.org/2000/svg"
   xmlns:svg="http://www.w3.org/2000/svg">
  <defs
     id="defs1" />
  <g
     id="g1"
     transform="translate(-5.000015e-4,-0.00971806)">
    <path
       id="path1"
       d="M 0,0 H 198.42766 M 0,28.3468 H 198.42766 M 0,56.69362 H 198.42766 M 0,85.04042 H 198.42766 M 0,113.38724 H 198.42766 M 0,141.72409 H 198.42766 M 0,0 V 141.73404 M 28.3468,0 V 141.73404 M 56.69362,0 V 141.73404 M 85.04042,0 V 141.73404 M 113.38724,0 V 141.73404 M 141.73404,0 V 141.73404 M 170.08086,0 V 141.73404 M 198.41771,0 v 141.73404"
       style="fill:none;stroke:#808080;stroke-width:0.19925;stroke-linecap:butt;stroke-linejoin:miter;stroke-miterlimit:10;stroke-dasharray:none;stroke-opacity:1"
       transform="matrix(1.3333333,0,0,-1.3333333,0.13333333,189.108)" />
    <path
       id="path2"
       d="m 1.4651719,-6.3636797 v 5.89453126 H 0.38704687 V -3.984375e-4 H 4.6878281 c 1.9570313,0 3.4453125,-1.2304687625 3.4453125,-3.3515624625 0,-2.1914063 -1.4882812,-3.4804688 -3.4570312,-3.4804688 H 0.38704687 v 0.46875 z m 1.359375,5.89453126 V -6.3636797 h 1.453125 c 0.65625,0 1.4765625,0.1875 1.96875,0.8789063 0.3515625,0.515625 0.4335937,1.1953125 0.4335937,2.1210937 0,1.078125 -0.1289062,1.6054688 -0.4453125,2.0625 -0.4804687,0.66796876 -1.3476562,0.83203126 -1.9570312,0.83203126 z m 8.1884761,-4.01953126 -1.7226558,0.082031 v 0.46875 c 0.5859375,0 0.65625,0 0.65625,0.3867187 v 3.08203126 H 9.2552109 V -3.984375e-4 C 9.5598984,-0.01211719 10.052086,-0.03555469 10.473961,-0.03555469 c 0.292969,0 0.808594,0.0234375 1.160156,0.0351562525 V -0.46914844 h -0.621094 z m 0.105469,-1.6523437 c 0,-0.4453125 -0.363281,-0.7851563 -0.773437,-0.7851563 -0.4335941,0 -0.7851566,0.3515625 -0.7851566,0.7851563 0,0.421875 0.3515625,0.7734375 0.7851566,0.7734375 0.410156,0 0.773437,-0.3398438 0.773437,-0.7734375 z m 2.947266,3.2109375 c -0.363281,-0.070312 -1.007813,-0.1757813 -1.007813,-0.6445313 0,-0.6210937 0.925782,-0.6210937 1.113282,-0.6210937 0.75,0 1.125,0.2929687 1.171875,0.84375 0.01172,0.140625 0.02344,0.1992187 0.234375,0.1992187 0.234375,0 0.234375,-0.058594 0.234375,-0.28125 v -0.796875 c 0,-0.1875 0,-0.28125 -0.175782,-0.28125 -0.04687,0 -0.05859,0 -0.445312,0.1875 -0.269531,-0.1289062 -0.609375,-0.1875 -1.007813,-0.1875 -0.304687,0 -1.839843,0 -1.839843,1.3007813 0,0.3984375 0.199218,0.6679687 0.398437,0.84375 0.398438,0.3398437 0.785156,0.4101562 1.546875,0.5390625 0.363281,0.070312 1.101563,0.1992187 1.101563,0.7851562 0,0.73828126 -0.914063,0.73828126 -1.125,0.73828126 -1.066407,0 -1.324219,-0.72656246 -1.441407,-1.14843746 -0.04687,-0.140625 -0.09375,-0.140625 -0.234375,-0.140625 -0.246093,0 -0.246093,0.058594 -0.246093,0.2929687 v 1.07812501 c 0,0.1875 0,0.28125 0.1875,0.28125 0.07031,0 0.08203,0 0.292968,-0.15234375 0.01172,0 0.234375,-0.140625 0.257813,-0.1640625 0.457031,0.31640625 0.984375,0.31640625 1.183594,0.31640625 0.304687,0 1.839843,0 1.839843,-1.45312501 0,-0.4335937 -0.199218,-0.7734375 -0.550781,-1.0546875 -0.386719,-0.2929687 -0.703125,-0.3515625 -1.488281,-0.4804687 z m 3.251953,-1.4765625 v 0.46875 c 0.164062,0 0.386719,0 0.527344,0.023437 0.222656,0.035156 0.222656,0.1640625 0.222656,0.375 v 3.96093746 c 0,0.4921875 -0.152344,1.20703124 -0.75,1.20703124 -0.152344,0 -0.234375,-0.011719 -0.386719,-0.058594 0.1875,-0.140625 0.246094,-0.3398438 0.246094,-0.4921875 0,-0.35156254 -0.257813,-0.62109379 -0.621094,-0.62109379 -0.375,0 -0.632812,0.26953125 -0.632812,0.63281249 0,0.5625 0.597656,0.9023438 1.417968,0.9023438 0.855469,0 1.804688,-0.515625 1.804688,-1.57031254 V -4.4886797 Z m 1.828125,-1.734375 c 0,-0.4335938 -0.351563,-0.7851563 -0.773438,-0.7851563 -0.433593,0 -0.785156,0.3515625 -0.785156,0.7851563 0,0.421875 0.351563,0.7734375 0.785156,0.7734375 0.421875,0 0.773438,-0.3515625 0.773438,-0.7734375 z M 25.389,-2.1683672 c 0,-1.3359375 -0.914063,-2.34375 -2.542969,-2.34375 -1.628906,0 -2.542969,1.0195313 -2.542969,2.34375 0,1.23046876 0.878907,2.22656251 2.542969,2.22656251 1.675781,0 2.542969,-1.0078125 2.542969,-2.22656251 z m -2.542969,1.82812501 c -1.265625,0 -1.265625,-1.07812501 -1.265625,-1.94531251 0,-0.4453125 0,-0.9492187 0.164063,-1.2890625 0.199218,-0.375 0.609375,-0.5742187 1.101562,-0.5742187 0.421875,0 0.832031,0.1523437 1.054688,0.5039062 0.210937,0.3398438 0.210937,0.890625 0.210937,1.359375 0,0.8671875 0,1.94531251 -1.265625,1.94531251 z m 5.097656,-4.14843751 -1.722656,0.082031 v 0.46875 c 0.585938,0 0.65625,0 0.65625,0.3867187 v 3.08203126 H 26.185875 V -3.984375e-4 C 26.490562,-0.01211719 26.98275,-0.03555469 27.404625,-0.03555469 c 0.292969,0 0.808594,0.0234375 1.160156,0.0351562525 V -0.46914844 h -0.621094 z m 0.105469,-1.6523437 c 0,-0.4453125 -0.363281,-0.7851563 -0.773437,-0.7851563 -0.433594,0 -0.785157,0.3515625 -0.785157,0.7851563 0,0.421875 0.351563,0.7734375 0.785157,0.7734375 0.410156,0 0.773437,-0.3398438 0.773437,-0.7734375 z m 1.986328,2.5898437 v 3.08203126 h -0.691406 v 0.4687500025 c 0.28125,-0.0117187525 0.878906,-0.0351562525 1.253906,-0.0351562525 0.398438,0 0.984375,0.0234375 1.253907,0.0351562525 V -0.46914844 H 31.172203 V -2.5550859 c 0,-1.078125 0.855469,-1.5703125 1.476563,-1.5703125 0.339843,0 0.550781,0.2109375 0.550781,0.9726562 v 2.68359376 H 32.519859 V -3.984375e-4 C 32.789391,-0.01211719 33.387047,-0.03555469 33.773766,-0.03555469 c 0.386718,0 0.972656,0.0234375 1.253906,0.0351562525 V -0.46914844 H 34.336266 V -3.0472734 c 0,-1.0429688 -0.539063,-1.4414063 -1.535157,-1.4414063 -0.949218,0 -1.476562,0.5742188 -1.746093,1.078125 v -1.078125 l -1.710938,0.082031 v 0.46875 c 0.621094,0 0.691406,0 0.691406,0.386719 z m 5.941407,-0.3984375 v 2.71875 c 0,1.06640626 0.867187,1.28906251 1.570312,1.28906251 0.75,0 1.207031,-0.5625 1.207031,-1.28906251 v -0.5273437 h -0.46875 v 0.5039062 c 0,0.67968751 -0.316406,0.91406251 -0.597656,0.91406251 -0.585937,0 -0.585937,-0.6328125 -0.585937,-0.86718751 v -2.7421875 h 1.464843 v -0.46875 h -1.464843 v -1.9101562 h -0.457032 c -0.01172,0.9960937 -0.503906,1.9804687 -1.488281,2.015625 v 0.3632812 z m 0,0"
       style="fill:#000000;fill-opacity:1;fill-rule:nonzero;stroke:none"
       aria-label="Disjoint"
       transform="matrix(1.3333333,0,0,1.3333333,106.148,44.856)" />
    <path
       id="path3"
       d="m 85.04042,56.69362 c 0,15.6557 -12.6911,28.3468 -28.3468,28.3468 -15.65572,0 -28.34682,-12.6911 -28.34682,-28.3468 0,-15.65572 12.6911,-28.34682 28.34682,-28.34682 15.6557,0 28.3468,12.6911 28.3468,28.34682 z"
       style="fill:#b3e6fa;fill-opacity:1;fill-rule:nonzero;stroke:none"
       transform="matrix(1.3333333,0,0,-1.3333333,0.13333333,189.108)" />
    <path
       id="path4"
       d="M 3.9605781,-6.9362813 C 3.9137031,-7.0651875 3.8902656,-7.1355 3.7379219,-7.1355 c -0.1640625,0 -0.1875,0.058594 -0.2460938,0.1992187 l -2.0625,5.9648438 c -0.1757812,0.50390625 -0.57421873,0.65625 -1.11328123,0.66796875 v 0.3046875 c 0.234375,-0.01171875 0.65625,-0.03515625 1.01953123,-0.03515625 0.3046875,0 0.8203125,0.0234375 1.1484375,0.03515625 v -0.3046875 c -0.5039062,0 -0.75,-0.2578125 -0.75,-0.515625 0,-0.0234375 0.011719,-0.12890625 0.023437,-0.140625 L 2.2144844,-2.2722188 h 2.4609375 l 0.5273437,1.52343755 c 0.011719,0.046875 0.023437,0.10546875 0.023437,0.140625 0,0.3046875 -0.5507812,0.3046875 -0.8203125,0.3046875 v 0.3046875 c 0.351563,-0.03515625 1.054688,-0.03515625 1.429688,-0.03515625 0.4335938,0 0.890625,0.01171875 1.3007813,0.03515625 v -0.3046875 H 6.9605781 c -0.5976562,0 -0.7382812,-0.0703125 -0.84375,-0.3984375 z m -0.5273437,1.125 1.125,3.234375 H 2.3199531 Z m 0,0"
       style="fill:#000000;fill-opacity:1;fill-rule:nonzero;stroke:none"
       aria-label="A"
       transform="matrix(1.3333333,0,0,1.3333333,70.742667,70.764)" />
    <path
       id="path5"
       d="m 170.08086,56.69362 c 0,15.6557 -12.6911,28.3468 -28.34682,28.3468 -15.65572,0 -28.3468,-12.6911 -28.3468,-28.3468 0,-15.65572 12.69108,-28.34682 28.3468,-28.34682 15.65572,0 28.34682,12.6911 28.34682,28.34682 z"
       style="fill:#b3e6fa;fill-opacity:1;fill-rule:nonzero;stroke:none"
       transform="matrix(1.3333333,0,0,-1.3333333,0.13333333,189.108)" />
    <path
       id="path6"
       d="m 2.2136016,-3.6433125 v -2.4492188 c 0,-0.328125 0.011719,-0.3984375 0.4804687,-0.3984375 h 1.2421875 c 0.9609375,0 1.3125,0.84375 1.3125,1.3710938 0,0.6328125 -0.4921875,1.4765625 -1.59375,1.4765625 z m 2.34375,0.09375 c 0.9726562,-0.1992188 1.6523437,-0.8320313 1.6523437,-1.5703125 0,-0.8671875 -0.9140625,-1.6875 -2.203125,-1.6875 H 0.36203906 v 0.3164062 h 0.234375 c 0.76171874,0 0.78515624,0.1054688 0.78515624,0.46875 v 5.25000005 c 0,0.3515625 -0.023437,0.46875 -0.78515624,0.46875 h -0.234375 v 0.3046875 H 4.2643828 c 1.3242188,0 2.2148438,-0.890625 2.2148438,-1.82812505 0,-0.8671875 -0.8085938,-1.6054687 -1.921875,-1.7226562 z m -0.609375,3.24609375 H 2.6940703 c -0.46875,0 -0.4804687,-0.0703125 -0.4804687,-0.3984375 V -3.4206563 h 1.875 c 0.984375,0 1.3945312,0.9257813 1.3945312,1.59375 0,0.703125 -0.515625,1.52343755 -1.5351562,1.52343755 z m 0,0"
       style="fill:#000000;fill-opacity:1;fill-rule:nonzero;stroke:none"
       aria-label="B"
       transform="matrix(1.3333333,0,0,1.3333333,184.404,70.764)" />
    <path
       id="path7"
       d="m 7.9561016,-3.3753984 c 0,-2.15625 -1.4414063,-3.5625 -3.65625,-3.5625 -2.2734375,0 -3.66796879,1.4648437 -3.66796879,3.5625 0,2.0625 1.39453129,3.48046871 3.65624999,3.48046871 2.296875,0 3.6679688,-1.44140621 3.6679688,-3.48046871 z m -3.6679688,3.07031246 c -0.5859375,0 -1.3125,-0.28125 -1.7226562,-1.04296876 -0.328125,-0.609375 -0.4101563,-1.3242187 -0.4101563,-2.1796875 0,-0.6328125 0.035156,-1.4882812 0.46875,-2.15625 0.4101563,-0.609375 1.078125,-0.8554687 1.6640625,-0.8554687 0.6445313,0 1.3242188,0.2695312 1.7226563,0.9257812 0.3867187,0.6445313 0.421875,1.40625 0.421875,2.0859375 0,0.703125 -0.035156,1.5820313 -0.4570313,2.2734375 -0.4453125,0.72656251 -1.1484375,0.94921876 -1.6875,0.94921876 z M 13.645555,-3.7503984 c 0.05859,-0.140625 0.105468,-0.1992188 0.738281,-0.1992188 v -0.46875 c -0.246094,0.011719 -0.539063,0.023437 -0.785156,0.023437 -0.246094,0 -0.703125,-0.023437 -0.902344,-0.023437 v 0.46875 c 0.1875,0 0.46875,0.023437 0.46875,0.1054688 0,0.011719 -0.01172,0.023437 -0.04687,0.1171875 l -1.160156,2.4960937 -1.253907,-2.71875 h 0.527344 v -0.46875 c -0.328125,0.011719 -1.21875,0.023437 -1.230469,0.023437 -0.2812496,0 -0.7265621,-0.023437 -1.1367183,-0.023437 v 0.46875 h 0.6445312 l 1.7343751,3.73828126 c 0.117187,0.24609375 0.257812,0.24609375 0.386719,0.24609375 0.164062,0 0.269531,-0.0234375 0.363281,-0.234375 z m 5.293945,1.5820312 c 0.210938,0 0.316406,0 0.316406,-0.2695312 0,-0.3164063 -0.05859,-1.0429688 -0.5625,-1.5351563 -0.363281,-0.3632812 -0.890625,-0.5390625 -1.582031,-0.5390625 -1.59375,0 -2.460937,1.0195313 -2.460937,2.2734375 0,1.33593751 0.996093,2.29687501 2.601562,2.29687501 1.570313,0 2.003906,-1.0546875 2.003906,-1.21875001 0,-0.1875 -0.1875,-0.1875 -0.234375,-0.1875 -0.175781,0 -0.199218,0.046875 -0.257812,0.2109375 -0.210938,0.48046876 -0.773438,0.79687501 -1.417969,0.79687501 -1.40625,0 -1.417969,-1.32421871 -1.417969,-1.82812501 z m -3.011719,-0.328125 c 0.02344,-0.3984375 0.03516,-0.8085937 0.234375,-1.1367187 0.269532,-0.3984375 0.667969,-0.515625 0.949219,-0.515625 1.171875,0 1.183594,1.3007812 1.195313,1.6523437 z m 5.683594,-0.8554687 v -1.1367188 l -1.664062,0.082031 v 0.46875 c 0.621093,0 0.691406,0 0.691406,0.3867187 v 3.08203126 H 19.947313 V -3.984375e-4 C 20.298875,-0.01211719 20.744188,-0.03555469 21.212938,-0.03555469 c 0.375,0 1.007812,0 1.371093,0.0351562525 V -0.46914844 H 21.716844 V -2.2152422 c 0,-0.6914062 0.246094,-1.9101562 1.242187,-1.9101562 -0.01172,0.011719 -0.1875,0.1757812 -0.1875,0.4570312 0,0.4101563 0.316407,0.609375 0.609375,0.609375 0.292969,0 0.609375,-0.2109375 0.609375,-0.609375 0,-0.5273437 -0.539062,-0.8203125 -1.054687,-0.8203125 -0.703125,0 -1.101563,0.5039063 -1.324219,1.1367188 z m 4.918945,-3.5625 -1.757812,0.082031 v 0.46875 c 0.621094,0 0.691406,0 0.691406,0.3867188 v 5.50781246 H 24.772508 V -3.984375e-4 C 25.088914,-0.01211719 25.569383,-0.03555469 26.002977,-0.03555469 c 0.421875,0 0.878906,0.0234375 1.21875,0.0351562525 V -0.46914844 H 26.53032 Z m 4.681641,6.15234371 c 0,0.3046875 0,0.7617187525 1.03125,0.7617187525 h 0.480469 c 0.199218,0 0.316406,0 0.316406,-0.2343750025 0,-0.234375 -0.128906,-0.234375 -0.257813,-0.234375 -0.609375,-0.0117188 -0.609375,-0.140625 -0.609375,-0.36328125 V -2.9769609 c 0,-0.890625 -0.703125,-1.5351563 -2.191406,-1.5351563 -0.5625,0 -1.78125,0.035156 -1.78125,0.9140625 0,0.4453125 0.351563,0.6328125 0.621094,0.6328125 0.304687,0 0.621094,-0.2109375 0.621094,-0.6328125 0,-0.2929687 -0.1875,-0.46875 -0.210938,-0.4921875 0.28125,-0.058594 0.597656,-0.058594 0.714844,-0.058594 0.75,0 1.089844,0.4101562 1.089844,1.171875 v 0.3398437 c -0.703125,0.023437 -3.234375,0.1171875 -3.234375,1.5585938 0,0.96093746 1.242187,1.13671871 1.921875,1.13671871 0.796875,0 1.265625,-0.41015625 1.488281,-0.8203122 z M 31.03618,-2.3324297 v 0.9492188 c 0,0.94921871 -0.914063,1.07812496 -1.160157,1.07812496 -0.503906,0 -0.902343,-0.33984375 -0.902343,-0.78515626 0,-1.0664062 1.570312,-1.2070312 2.0625,-1.2421875 z m 4.209961,-0.9492187 c 0,-0.1875 0.01172,-0.1992188 0.152343,-0.3398438 0.398438,-0.3984375 0.914063,-0.46875 1.136719,-0.46875 0.667969,0 1.21875,0.609375 1.21875,1.8632813 0,1.40624996 -0.691406,1.92187496 -1.347656,1.92187496 -0.128906,0 -0.597656,0 -1.054688,-0.52734375 -0.105468,-0.12890625 -0.105468,-0.140625 -0.105468,-0.32812501 z m 0,2.89453121 c 0.433593,0.3515625 0.867187,0.4453125 1.277343,0.4453125 1.488282,0 2.507813,-0.890625 2.507813,-2.28515621 0,-1.3242188 -0.902344,-2.2617188 -2.34375,-2.2617188 -0.738281,0 -1.277344,0.3164063 -1.5,0.4921875 v -0.4921875 l -1.769531,0.082031 v 0.46875 c 0.621093,0 0.691406,0 0.691406,0.3867187 v 5.015625 h -0.691406 v 0.46875 c 0.28125,-0.011719 0.878906,-0.035156 1.265625,-0.035156 0.386718,0 0.972656,0.023437 1.253906,0.035156 v -0.46875 h -0.691406 z m 0,0"
       style="fill:#000000;fill-opacity:1;fill-rule:nonzero;stroke:none"
       aria-label="Overlap"
       transform="matrix(1.3333333,0,0,1.3333333,408.49733,44.856)" />
    <path
       id="path8"
       d="m 311.8149,56.69362 c 0,15.6557 -12.69109,28.3468 -28.3468,28.3468 -15.65572,0 -28.34682,-12.6911 -28.34682,-28.3468 0,-15.65572 12.6911,-28.34682 28.34682,-28.34682 15.65571,0 28.3468,12.6911 28.3468,28.34682 z"
       style="fill:#b3e6fa;fill-opacity:1;fill-rule:nonzero;stroke:none"
       transform="matrix(1.3333333,0,0,-1.3333333,0.13333333,189.108)" />
    <path
       id="path9"
       d="M 3.9620391,-6.9362813 C 3.9151641,-7.0651875 3.8917266,-7.1355 3.7393828,-7.1355 c -0.1640625,0 -0.1875,0.058594 -0.2460937,0.1992187 l -2.0625,5.9648438 c -0.1757813,0.50390625 -0.57421879,0.65625 -1.11328129,0.66796875 v 0.3046875 c 0.234375,-0.01171875 0.65625,-0.03515625 1.01953129,-0.03515625 0.3046875,0 0.8203125,0.0234375 1.1484375,0.03515625 v -0.3046875 c -0.5039063,0 -0.75,-0.2578125 -0.75,-0.515625 0,-0.0234375 0.011719,-0.12890625 0.023437,-0.140625 L 2.2159453,-2.2722188 h 2.4609375 l 0.5273438,1.52343755 c 0.011719,0.046875 0.023437,0.10546875 0.023437,0.140625 0,0.3046875 -0.5507813,0.3046875 -0.8203125,0.3046875 v 0.3046875 c 0.351563,-0.03515625 1.054688,-0.03515625 1.429688,-0.03515625 0.4335937,0 0.890625,0.01171875 1.3007812,0.03515625 v -0.3046875 H 6.9620391 c -0.5976563,0 -0.7382813,-0.0703125 -0.84375,-0.3984375 z m -0.5273438,1.125 1.125,3.234375 H 2.3214141 Z m 0,0"
       style="fill:#000000;fill-opacity:1;fill-rule:nonzero;stroke:none"
       aria-label="A"
       transform="matrix(1.3333333,0,0,1.3333333,373.104,70.764)" />
    <path
       id="path10"
       d="m 354.33511,56.69362 c 0,15.6557 -12.6911,28.3468 -28.34681,28.3468 -15.65572,0 -28.3468,-12.6911 -28.3468,-28.3468 0,-15.65572 12.69108,-28.34682 28.3468,-28.34682 15.65571,0 28.34681,12.6911 28.34681,28.34682 z"
       style="fill:#b3e6fa;fill-opacity:1;fill-rule:nonzero;stroke:none"
       transform="matrix(1.3333333,0,0,-1.3333333,0.13333333,189.108)" />
    <path
       id="path11"
       d="m 2.2155078,-3.6433125 v -2.4492188 c 0,-0.328125 0.011719,-0.3984375 0.4804688,-0.3984375 h 1.2421875 c 0.9609375,0 1.3125,0.84375 1.3125,1.3710938 0,0.6328125 -0.4921875,1.4765625 -1.59375,1.4765625 z m 2.34375,0.09375 c 0.9726563,-0.1992188 1.6523438,-0.8320313 1.6523438,-1.5703125 0,-0.8671875 -0.9140625,-1.6875 -2.203125,-1.6875 H 0.36394531 v 0.3164062 h 0.234375 c 0.76171879,0 0.78515629,0.1054688 0.78515629,0.46875 v 5.25000005 c 0,0.3515625 -0.023437,0.46875 -0.78515629,0.46875 h -0.234375 v 0.3046875 H 4.2662891 c 1.3242187,0 2.2148437,-0.890625 2.2148437,-1.82812505 0,-0.8671875 -0.8085937,-1.6054687 -1.921875,-1.7226562 z m -0.609375,3.24609375 H 2.6959766 c -0.46875,0 -0.4804688,-0.0703125 -0.4804688,-0.3984375 V -3.4206563 h 1.875 c 0.984375,0 1.3945313,0.9257813 1.3945313,1.59375 0,0.703125 -0.515625,1.52343755 -1.5351563,1.52343755 z m 0,0"
       style="fill:#000000;fill-opacity:1;fill-rule:nonzero;stroke:none"
       aria-label="B"
       transform="matrix(1.3333333,0,0,1.3333333,430.07333,70.764)" />
    <path
       id="path12"
       d="M 226.77448,0 H 396.85533 M 226.77448,28.3468 H 396.85533 M 226.77448,56.69362 H 396.85533 M 226.77448,85.04042 H 396.85533 M 226.77448,113.38724 H 396.85533 M 226.77448,141.72409 H 396.85533 M 226.77448,0 V 141.73404 M 255.12128,0 V 141.73404 M 283.4681,0 V 141.73404 M 311.8149,0 V 141.73404 M 340.16171,0 V 141.73404 M 368.50851,0 V 141.73404 M 396.84537,0 v 141.73404"
       style="fill:none;stroke:#808080;stroke-width:0.19925;stroke-linecap:butt;stroke-linejoin:miter;stroke-miterlimit:10;stroke-dasharray:none;stroke-opacity:1"
       transform="matrix(1.3333333,0,0,-1.3333333,0.13333333,189.108)" />
  </g>
</svg>
