<?xml version="1.0" encoding="UTF-8" standalone="no"?>
<!-- Created with Inkscape (http://www.inkscape.org/) -->

<svg
   version="1.1"
   id="svg1"
   width="567.18854"
   height="151.43536"
   viewBox="0 0 567.18854 151.43536"
   xmlns="http://www.w3.org/2000/svg"
   xmlns:svg="http://www.w3.org/2000/svg">
  <defs
     id="defs1" />
  <g
     id="g1"
     transform="translate(-5.000015e-4,-0.01080712)">
    <path
       id="path1"
       d="m 85.04042,56.69362 c 0,15.6557 -12.6911,28.3468 -28.3468,28.3468 -15.65572,0 -28.34682,-12.6911 -28.34682,-28.3468 0,-15.65572 12.6911,-28.34682 28.34682,-28.34682 15.6557,0 28.3468,12.6911 28.3468,28.34682 z"
       style="fill:#fff200;fill-opacity:1;fill-rule:nonzero;stroke:none"
       transform="matrix(1.3333333,0,0,-1.3333333,0.13333333,151.31333)" />
    <path
       id="path2"
       d="m 1.7825938,-1.1483906 c -0.3984375,0.66796873 -0.7851563,0.80859373 -1.21875005,0.84374998 -0.12890625,0 -0.2109375,0 -0.2109375,0.19921875 0,0.05859375 0.046875,0.105468745 0.12890625,0.105468745 0.26953125,0 0.5742188,-0.035156245 0.8554688,-0.035156245 0.328125,0 0.6796875,0.035156245 0.9960937,0.035156245 0.058594,0 0.1875,0 0.1875,-0.187499995 0,-0.1171875 -0.09375,-0.1171875 -0.1640625,-0.1171875 -0.2226562,-0.0234375 -0.4570312,-0.10546875 -0.4570312,-0.3515625 0,-0.1171875 0.058594,-0.234375 0.1289062,-0.37499998 l 0.7617188,-1.265625 H 5.2865 c 0.023437,0.1992187 0.1640625,1.55859373 0.1640625,1.66406248 0,0.29296875 -0.515625,0.328125 -0.7148437,0.328125 -0.140625,0 -0.2460938,0 -0.2460938,0.19921875 0,0.105468745 0.1289063,0.105468745 0.140625,0.105468745 0.4101563,0 0.84375,-0.035156245 1.2539063,-0.035156245 0.2460937,0 0.8671875,0.035156245 1.125,0.035156245 0.058594,0 0.1757812,0 0.1757812,-0.199218745 0,-0.10546875 -0.1054687,-0.10546875 -0.234375,-0.10546875 -0.609375,0 -0.609375,-0.0703125 -0.6445312,-0.36328125 L 5.6966563,-6.8905781 c -0.011719,-0.1992188 -0.011719,-0.2460938 -0.1875,-0.2460938 -0.1640625,0 -0.1992188,0.070312 -0.2578125,0.1757813 z m 1.1953125,-1.4648438 1.96875,-3.28125 0.3164062,3.28125 z m 0,0"
       style="fill:#000000;fill-opacity:1;fill-rule:nonzero;stroke:none"
       aria-label="A"
       transform="matrix(1.3333333,0,0,1.3333333,33.701333,43.664)" />
    <path
       id="path3"
       d="M 0,0 H 425.20213 M 0,28.3468 H 425.20213 M 0,56.69362 H 425.20213 M 0,85.04042 H 425.20213 M 0,113.37727 H 425.20213 M 0,0 V 113.38724 M 28.3468,0 V 113.38724 M 56.69362,0 V 113.38724 M 85.04042,0 V 113.38724 M 113.38724,0 V 113.38724 M 141.73404,0 V 113.38724 M 170.08086,0 V 113.38724 M 198.42766,0 V 113.38724 M 226.77448,0 V 113.38724 M 255.12128,0 V 113.38724 M 283.4681,0 V 113.38724 M 311.8149,0 V 113.38724 M 340.16171,0 V 113.38724 M 368.50851,0 V 113.38724 M 396.85533,0 V 113.38724 M 425.19218,0 v 113.38724"
       style="fill:none;stroke:#808080;stroke-width:0.19925;stroke-linecap:butt;stroke-linejoin:miter;stroke-miterlimit:10;stroke-dasharray:none;stroke-opacity:1"
       transform="matrix(1.3333333,0,0,-1.3333333,0.13333333,151.31333)" />
  </g>
</svg>
