<?xml version="1.0" encoding="UTF-8" standalone="no"?>
<!-- Created with Inkscape (http://www.inkscape.org/) -->

<svg
   version="1.1"
   id="svg1"
   width="605.26324"
   height="227.30579"
   viewBox="0 0 605.26324 227.30578"
   xmlns="http://www.w3.org/2000/svg"
   xmlns:svg="http://www.w3.org/2000/svg">
  <defs
     id="defs1" />
  <g
     id="g1"
     transform="translate(6.6045445e-5,0.00305193)">
    <path
       id="path1"
       d="M 0,0 V 141.73404 H 198.42766 V 0 Z"
       style="fill:none;stroke:#000000;stroke-width:0.3985;stroke-linecap:butt;stroke-linejoin:miter;stroke-miterlimit:10;stroke-dasharray:none;stroke-opacity:1"
       transform="matrix(1.3333333,0,0,-1.3333333,38.061333,189.24133)" />
    <path
       id="path2"
       d="m 1.4635078,-6.3619688 v 5.8945313 H 0.38538281 v 0.46875 H 4.6861641 c 1.9570312,0 3.4453125,-1.2304688 3.4453125,-3.3515625 0,-2.1914063 -1.4882813,-3.4804688 -3.4570313,-3.4804688 H 0.38538281 v 0.46875 z m 1.359375,5.8945313 v -5.8945313 h 1.453125 c 0.65625,0 1.4765625,0.1875 1.96875,0.8789063 0.3515625,0.515625 0.4335938,1.1953125 0.4335938,2.1210937 0,1.078125 -0.1289063,1.6054688 -0.4453125,2.0625 C 5.7525703,-0.6315 4.8853828,-0.4674375 4.2760078,-0.4674375 Z m 8.1884762,-4.0195313 -1.7226559,0.082031 v 0.46875 c 0.5859375,0 0.65625,0 0.65625,0.3867187 v 3.0820313 H 9.2535469 v 0.46875 c 0.3046875,-0.01171875 0.7968751,-0.03515625 1.2187501,-0.03515625 0.292969,0 0.808594,0.0234375 1.160156,0.03515625 v -0.46875 h -0.621094 z m 0.105469,-1.6523437 c 0,-0.4453125 -0.363281,-0.7851563 -0.773437,-0.7851563 -0.4335941,0 -0.7851566,0.3515625 -0.7851566,0.7851563 0,0.421875 0.3515625,0.7734375 0.7851566,0.7734375 0.410156,0 0.773437,-0.3398438 0.773437,-0.7734375 z m 2.950195,3.2109375 c -0.363281,-0.070312 -1.007812,-0.1757813 -1.007812,-0.6445313 0,-0.6210937 0.925781,-0.6210937 1.113281,-0.6210937 0.75,0 1.125,0.2929687 1.171875,0.84375 0.01172,0.140625 0.02344,0.1992187 0.234375,0.1992187 0.234375,0 0.234375,-0.058594 0.234375,-0.28125 v -0.796875 c 0,-0.1875 0,-0.28125 -0.175781,-0.28125 -0.04687,0 -0.05859,0 -0.445313,0.1875 -0.269531,-0.1289062 -0.609375,-0.1875 -1.007812,-0.1875 -0.304688,0 -1.839844,0 -1.839844,1.3007813 0,0.3984375 0.199219,0.6679687 0.398438,0.84375 0.398437,0.3398437 0.785156,0.4101562 1.546875,0.5390625 0.363281,0.070312 1.101562,0.1992187 1.101562,0.7851562 0,0.7382813 -0.914062,0.7382813 -1.125,0.7382813 -1.066406,0 -1.324219,-0.7265625 -1.441406,-1.1484375 -0.04687,-0.140625 -0.09375,-0.140625 -0.234375,-0.140625 -0.246094,0 -0.246094,0.058594 -0.246094,0.2929687 v 1.07812505 c 0,0.1875 0,0.28125 0.1875,0.28125 0.07031,0 0.08203,0 0.292969,-0.15234375 0.01172,0 0.234375,-0.140625 0.257812,-0.1640625 0.457032,0.31640625 0.984375,0.31640625 1.183594,0.31640625 0.304688,0 1.839844,0 1.839844,-1.45312505 0,-0.4335937 -0.199219,-0.7734375 -0.550781,-1.0546875 C 15.168586,-2.740875 14.85218,-2.7994688 14.067023,-2.928375 Z m 3.251954,-1.4765625 v 0.46875 c 0.164062,0 0.386718,0 0.527343,0.023437 0.222657,0.035156 0.222657,0.1640625 0.222657,0.375 V 0.423187 c 0,0.4921875 -0.152344,1.2070312 -0.75,1.2070312 -0.152344,0 -0.234375,-0.011719 -0.386719,-0.058594 0.1875,-0.140625 0.246094,-0.3398438 0.246094,-0.4921875 0,-0.3515625 -0.257813,-0.62109375 -0.621094,-0.62109375 -0.375,0 -0.632813,0.26953125 -0.632813,0.63281245 0,0.5625 0.597657,0.9023438 1.417969,0.9023438 0.855469,0 1.804688,-0.515625 1.804688,-1.5703125 v -4.9101563 z m 1.828125,-1.734375 c 0,-0.4335938 -0.351563,-0.7851563 -0.773438,-0.7851563 -0.433594,0 -0.785156,0.3515625 -0.785156,0.7851563 0,0.421875 0.351562,0.7734375 0.785156,0.7734375 0.421875,0 0.773438,-0.3515625 0.773438,-0.7734375 z m 6.243164,3.9726562 c 0,-1.3359375 -0.914063,-2.34375 -2.542969,-2.34375 -1.628906,0 -2.542969,1.0195313 -2.542969,2.34375 0,1.2304688 0.878906,2.22656255 2.542969,2.22656255 1.675781,0 2.542969,-1.0078125 2.542969,-2.22656255 z m -2.542969,1.82812505 c -1.265625,0 -1.265625,-1.07812505 -1.265625,-1.94531255 0,-0.4453125 0,-0.9492187 0.164062,-1.2890625 0.199219,-0.375 0.609375,-0.5742187 1.101563,-0.5742187 0.421875,0 0.832031,0.1523437 1.054687,0.5039062 0.210938,0.3398438 0.210938,0.890625 0.210938,1.359375 0,0.8671875 0,1.94531255 -1.265625,1.94531255 z m 5.094726,-4.14843755 -1.722656,0.082031 v 0.46875 c 0.585938,0 0.65625,0 0.65625,0.3867187 v 3.0820313 h -0.691406 v 0.46875 c 0.304687,-0.01171875 0.796875,-0.03515625 1.21875,-0.03515625 0.292969,0 0.808594,0.0234375 1.160156,0.03515625 v -0.46875 h -0.621094 z m 0.105469,-1.6523437 c 0,-0.4453125 -0.363281,-0.7851563 -0.773437,-0.7851563 -0.433594,0 -0.785157,0.3515625 -0.785157,0.7851563 0,0.421875 0.351563,0.7734375 0.785157,0.7734375 0.410156,0 0.773437,-0.3398438 0.773437,-0.7734375 z m 1.986328,2.5898437 v 3.0820313 h -0.691406 v 0.46875 c 0.28125,-0.01171875 0.878906,-0.03515625 1.253906,-0.03515625 0.398438,0 0.984375,0.0234375 1.253907,0.03515625 v -0.46875 H 31.170539 V -2.553375 c 0,-1.078125 0.855469,-1.5703125 1.476563,-1.5703125 0.339843,0 0.550781,0.2109375 0.550781,0.9726562 v 2.6835938 h -0.679688 v 0.46875 c 0.269532,-0.01171875 0.867188,-0.03515625 1.253907,-0.03515625 0.386718,0 0.972656,0.0234375 1.253906,0.03515625 v -0.46875 h -0.691406 v -2.578125 c 0,-1.0429688 -0.539063,-1.4414063 -1.535157,-1.4414063 -0.949218,0 -1.476562,0.5742188 -1.746093,1.078125 v -1.078125 l -1.710938,0.082031 v 0.46875 c 0.621094,0 0.691406,0 0.691406,0.386719 z m 5.941407,-0.3984375 v 2.71875 c 0,1.0664063 0.867187,1.28906255 1.570312,1.28906255 0.75,0 1.207031,-0.5625 1.207031,-1.28906255 V -1.7565 h -0.46875 v 0.5039062 c 0,0.67968755 -0.316406,0.91406255 -0.597656,0.91406255 -0.585937,0 -0.585937,-0.6328125 -0.585937,-0.86718755 v -2.7421875 h 1.464843 v -0.46875 h -1.464843 v -1.9101562 h -0.457032 c -0.01172,0.9960937 -0.503906,1.9804687 -1.488281,2.015625 v 0.3632812 z m 0,0"
       style="fill:#000000;fill-opacity:1;fill-rule:nonzero;stroke:none"
       aria-label="Disjoint"
       transform="matrix(1.3333333,0,0,1.3333333,144.076,26.092)" />
    <path
       id="path3"
       d="m 85.04042,70.867 c 0,15.65572 -12.6911,28.34682 -28.3468,28.34682 -15.65572,0 -28.34682,-12.6911 -28.34682,-28.34682 0,-15.6557 12.6911,-28.3468 28.34682,-28.3468 15.6557,0 28.3468,12.6911 28.3468,28.3468 z"
       style="fill:none;stroke:#000000;stroke-width:0.3985;stroke-linecap:butt;stroke-linejoin:miter;stroke-miterlimit:10;stroke-dasharray:none;stroke-opacity:1"
       transform="matrix(1.3333333,0,0,-1.3333333,38.061333,189.24133)" />
    <path
       id="path4"
       d="m 3.9618438,-6.9375 c -0.046875,-0.1289062 -0.070312,-0.1992187 -0.2226563,-0.1992187 -0.1640625,0 -0.1875,0.058594 -0.2460937,0.1992187 l -2.0625,5.96484375 C 1.2548125,-0.46875 0.856375,-0.31640625 0.3173125,-0.3046875 V 0 c 0.234375,-0.01171875 0.65625,-0.03515625 1.0195313,-0.03515625 0.3046875,0 0.8203125,0.0234375 1.1484375,0.03515625 v -0.3046875 c -0.5039063,0 -0.75,-0.2578125 -0.75,-0.515625 0,-0.0234375 0.011719,-0.12890625 0.023437,-0.140625 l 0.4570312,-1.3125 h 2.460938 L 5.2040313,-0.75 c 0.011719,0.046875 0.023437,0.10546875 0.023437,0.140625 0,0.3046875 -0.5507813,0.3046875 -0.8203125,0.3046875 V 0 c 0.3515625,-0.03515625 1.0546875,-0.03515625 1.4296875,-0.03515625 0.4335937,0 0.890625,0.01171875 1.3007812,0.03515625 V -0.3046875 H 6.9618438 c -0.5976563,0 -0.7382813,-0.0703125 -0.84375,-0.3984375 z M 3.4345,-5.8125 4.5595,-2.578125 H 2.3212188 Z m 0,0"
       style="fill:#000000;fill-opacity:1;fill-rule:nonzero;stroke:none"
       aria-label="A"
       transform="matrix(1.3333333,0,0,1.3333333,108.67067,52)" />
    <path
       id="path5"
       d="m 85.04042,70.867 c 0,15.65572 -12.6911,28.34682 -28.3468,28.34682 -15.65572,0 -28.34682,-12.6911 -28.34682,-28.34682 0,-15.6557 12.6911,-28.3468 28.34682,-28.3468 15.6557,0 28.3468,12.6911 28.3468,28.3468 z"
       style="fill:#b3e6fa;fill-opacity:1;fill-rule:nonzero;stroke:none"
       transform="matrix(1.3333333,0,0,-1.3333333,38.061333,189.24133)" />
    <path
       id="path6"
       d="m 170.08086,70.867 c 0,15.65572 -12.6911,28.34682 -28.34682,28.34682 -15.65572,0 -28.3468,-12.6911 -28.3468,-28.34682 0,-15.6557 12.69108,-28.3468 28.3468,-28.3468 15.65572,0 28.34682,12.6911 28.34682,28.3468 z"
       style="fill:none;stroke:#000000;stroke-width:0.3985;stroke-linecap:butt;stroke-linejoin:miter;stroke-miterlimit:10;stroke-dasharray:none;stroke-opacity:1"
       transform="matrix(1.3333333,0,0,-1.3333333,38.061333,189.24133)" />
    <path
       id="path7"
       d="M 2.2138672,-3.6445313 V -6.09375 c 0,-0.328125 0.011719,-0.3984375 0.4804687,-0.3984375 h 1.2421875 c 0.9609375,0 1.3125,0.84375 1.3125,1.3710938 0,0.6328125 -0.4921875,1.4765624 -1.59375,1.4765624 z m 2.34375,0.09375 C 5.5302734,-3.75 6.2099609,-4.3828125 6.2099609,-5.1210937 c 0,-0.8671875 -0.9140625,-1.6875 -2.203125,-1.6875 H 0.36230469 v 0.3164062 h 0.234375 c 0.76171871,0 0.78515621,0.1054688 0.78515621,0.46875 v 5.25 c 0,0.3515625 -0.023437,0.46875 -0.78515621,0.46875 h -0.234375 V 0 H 4.2646484 c 1.3242188,0 2.2148438,-0.890625 2.2148438,-1.828125 0,-0.8671875 -0.8085938,-1.6054688 -1.921875,-1.7226563 z m -0.609375,3.2460938 H 2.6943359 c -0.46875,0 -0.4804687,-0.0703125 -0.4804687,-0.3984375 v -2.71875 h 1.875 c 0.984375,0 1.3945312,0.9257812 1.3945312,1.59375 0,0.703125 -0.515625,1.5234375 -1.5351562,1.5234375 z m 0,0"
       style="fill:#000000;fill-opacity:1;fill-rule:nonzero;stroke:none"
       aria-label="B"
       transform="matrix(1.3333333,0,0,1.3333333,222.33333,52)" />
    <g
       id="g7"
       aria-label="A∩B=A"
       transform="matrix(1.3333333,0,0,1.3333333,137.12667,160.95867)">
      <path
         id="path8"
         d="m 4.7214063,-6.6926328 c -0.1054688,-0.2578125 -0.234375,-0.2578125 -0.3984375,-0.2578125 -0.28125,0 -0.3164063,0.070312 -0.3867188,0.2578125 l -2.4726562,5.98828124 c -0.058594,0.15234375 -0.09375,0.234375 -0.84375005,0.234375 h -0.2109375 v 0.46875 c 0.375,-0.01171875 0.85546875,-0.03515625 1.16015625,-0.03515625 0.3867188,0 0.9492188,0 1.3242188,0.03515625 v -0.46875 c -0.023437,0 -0.890625,0 -0.890625,-0.12890625 0,-0.0117188 0.023437,-0.10546875 0.035156,-0.1171875 L 2.5417188,-1.9231016 h 2.671875 L 5.81125,-0.46997656 H 4.8620313 v 0.46875 c 0.375,-0.03515625 1.3242187,-0.03515625 1.7460937,-0.03515625 0.3984375,0 1.2773438,0 1.6289063,0.03515625 v -0.46875 H 7.2760938 Z m -0.84375,1.5351562 1.1367187,2.765625 H 2.7409375 Z m 0,0"
         style="fill:#000000;fill-opacity:1;fill-rule:nonzero;stroke:none" />
      <path
         id="path9"
         d="m 16.955781,-3.7863828 c 0,-1.5117188 -1.523437,-2.1679688 -2.765625,-2.1679688 -1.289062,0 -2.765625,0.6914063 -2.765625,2.15625 v 3.65625004 c 0,0.17578125 0,0.36328125 0.199219,0.36328125 0.199219,0 0.199219,-0.1875 0.199219,-0.36328125 V -3.7512266 c 0,-1.4882812 1.617187,-1.8046875 2.367187,-1.8046875 0.445313,0 1.078125,0.082031 1.605469,0.421875 0.761719,0.4921875 0.761719,1.125 0.761719,1.3945313 v 3.59765624 c 0,0.17578125 0,0.36328125 0.199218,0.36328125 0.199219,0 0.199219,-0.1875 0.199219,-0.36328125 z m 0,0"
         style="fill:#000000;fill-opacity:1;fill-rule:nonzero;stroke:none" />
      <path
         id="path10"
         d="m 22.492891,-3.7395078 v -2.625 h 1.816406 c 1.007812,0 1.183594,0.7851562 1.183594,1.2421875 0,0.7734375 -0.480469,1.3828125 -1.441407,1.3828125 z m 2.695312,0.1757812 c 1.078125,-0.1875 1.722656,-0.7851562 1.722656,-1.5585937 0,-0.9140625 -0.867187,-1.7109375 -2.472656,-1.7109375 h -4.324219 v 0.46875 h 1.078125 v 5.89453124 h -1.078125 v 0.46875 h 4.628907 c 1.652343,0 2.484375,-0.87890625 2.484375,-1.85156254 0,-0.9609375 -0.855469,-1.6289062 -2.039063,-1.7109375 z m -0.855469,3.09375004 H 22.492891 V -3.3762266 h 1.933593 c 0.199219,0 0.667969,0 1.007813,0.421875 0.328125,0.421875 0.328125,0.984375 0.328125,1.0898438 0,0.1171875 0,1.39453124 -1.429688,1.39453124 z m 0,0"
         style="fill:#000000;fill-opacity:1;fill-rule:nonzero;stroke:none" />
      <path
         id="path11"
         d="m 37.489961,-3.2590391 c 0.152344,0 0.339844,0 0.339844,-0.1992187 0,-0.1992188 -0.1875,-0.1992188 -0.328125,-0.1992188 h -5.964844 c -0.140625,0 -0.328125,0 -0.328125,0.1992188 0,0.1992187 0.1875,0.1992187 0.339844,0.1992187 z m 0.01172,1.9335938 c 0.140625,0 0.328125,0 0.328125,-0.1992188 0,-0.1992187 -0.1875,-0.1992187 -0.339844,-0.1992187 h -5.941406 c -0.152344,0 -0.339844,0 -0.339844,0.1992187 0,0.1992188 0.1875,0.1992188 0.328125,0.1992188 z m 0,0"
         style="fill:#000000;fill-opacity:1;fill-rule:nonzero;stroke:none" />
      <path
         id="path12"
         d="M 45.889375,-6.6926328 C 45.783906,-6.9504453 45.655,-6.9504453 45.490937,-6.9504453 c -0.28125,0 -0.316406,0.070312 -0.386718,0.2578125 l -2.472657,5.98828124 c -0.05859,0.15234375 -0.09375,0.234375 -0.84375,0.234375 h -0.210937 v 0.46875 c 0.375,-0.01171875 0.855469,-0.03515625 1.160156,-0.03515625 0.386719,0 0.949219,0 1.324219,0.03515625 v -0.46875 c -0.02344,0 -0.890625,0 -0.890625,-0.12890625 0,-0.0117188 0.02344,-0.10546875 0.03516,-0.1171875 l 0.503906,-1.20703129 h 2.671875 l 0.597657,1.45312504 H 46.03 v 0.46875 c 0.375,-0.03515625 1.324219,-0.03515625 1.746094,-0.03515625 0.398437,0 1.277343,0 1.628906,0.03515625 v -0.46875 h -0.960938 z m -0.84375,1.5351562 1.136719,2.765625 h -2.273438 z m 0,0"
         style="fill:#000000;fill-opacity:1;fill-rule:nonzero;stroke:none" />
    </g>
    <path
       id="path13"
       d="M 226.77448,0 V 141.73404 H 425.20213 V 0 Z"
       style="fill:none;stroke:#000000;stroke-width:0.3985;stroke-linecap:butt;stroke-linejoin:miter;stroke-miterlimit:10;stroke-dasharray:none;stroke-opacity:1"
       transform="matrix(1.3333333,0,0,-1.3333333,38.061333,189.24133)" />
    <path
       id="path14"
       d="m 7.9565391,-3.3736875 c 0,-2.15625 -1.4414063,-3.5625 -3.65625,-3.5625 -2.2734375,0 -3.66796879,1.4648437 -3.66796879,3.5625 0,2.0625 1.39453129,3.48046875 3.65624999,3.48046875 2.296875,0 3.6679688,-1.44140625 3.6679688,-3.48046875 z M 4.2885703,-0.303375 c -0.5859375,0 -1.3125,-0.28125 -1.7226562,-1.0429688 -0.328125,-0.609375 -0.4101563,-1.3242187 -0.4101563,-2.1796875 0,-0.6328125 0.035156,-1.4882812 0.46875,-2.15625 0.4101563,-0.609375 1.078125,-0.8554687 1.6640625,-0.8554687 0.6445313,0 1.3242188,0.2695312 1.7226563,0.9257812 0.3867187,0.6445313 0.421875,1.40625 0.421875,2.0859375 0,0.703125 -0.035156,1.5820313 -0.4570313,2.2734375 -0.4453125,0.72656255 -1.1484375,0.9492188 -1.6875,0.9492188 z m 9.3574217,-3.4453125 c 0.05859,-0.140625 0.105469,-0.1992188 0.738281,-0.1992188 v -0.46875 c -0.246093,0.011719 -0.539062,0.023437 -0.785156,0.023437 -0.246094,0 -0.703125,-0.023437 -0.902344,-0.023437 v 0.46875 c 0.1875,0 0.46875,0.023437 0.46875,0.1054688 0,0.011719 -0.01172,0.023437 -0.04687,0.1171875 l -1.160156,2.4960937 -1.253906,-2.71875 h 0.527344 v -0.46875 c -0.328125,0.011719 -1.21875,0.023437 -1.230469,0.023437 -0.2812501,0 -0.7265626,-0.023437 -1.1367188,-0.023437 v 0.46875 h 0.6445312 l 1.7343746,3.7382813 c 0.117188,0.24609375 0.257813,0.24609375 0.386719,0.24609375 0.164063,0 0.269531,-0.0234375 0.363281,-0.234375 z m 5.293945,1.5820312 c 0.210938,0 0.316407,0 0.316407,-0.2695312 0,-0.3164063 -0.05859,-1.0429688 -0.5625,-1.5351563 -0.363282,-0.3632812 -0.890625,-0.5390625 -1.582032,-0.5390625 -1.59375,0 -2.460937,1.0195313 -2.460937,2.2734375 0,1.33593755 0.996094,2.29687505 2.601562,2.29687505 1.570313,0 2.003907,-1.0546875 2.003907,-1.21875005 0,-0.1875 -0.1875,-0.1875 -0.234375,-0.1875 -0.175782,0 -0.199219,0.046875 -0.257813,0.2109375 -0.210937,0.4804688 -0.773437,0.79687505 -1.417969,0.79687505 -1.40625,0 -1.417968,-1.32421875 -1.417968,-1.82812505 z m -3.011718,-0.328125 c 0.02344,-0.3984375 0.03516,-0.8085937 0.234375,-1.1367187 0.269531,-0.3984375 0.667968,-0.515625 0.949218,-0.515625 1.171875,0 1.183594,1.3007812 1.195313,1.6523437 z M 21.611812,-3.35025 v -1.1367188 l -1.664062,0.082031 v 0.46875 c 0.621094,0 0.691406,0 0.691406,0.3867187 v 3.0820313 H 19.94775 v 0.46875 c 0.351562,-0.01171875 0.796875,-0.03515625 1.265625,-0.03515625 0.375,0 1.007812,0 1.371094,0.03515625 v -0.46875 h -0.867188 v -1.7460938 c 0,-0.6914062 0.246094,-1.9101562 1.242188,-1.9101562 -0.01172,0.011719 -0.1875,0.1757812 -0.1875,0.4570312 0,0.4101563 0.316406,0.609375 0.609375,0.609375 0.292968,0 0.609375,-0.2109375 0.609375,-0.609375 0,-0.5273437 -0.539063,-0.8203125 -1.054688,-0.8203125 -0.703125,0 -1.101562,0.5039063 -1.324219,1.1367191 z m 4.918946,-3.5625 -1.757813,0.082031 v 0.46875 c 0.621094,0 0.691407,0 0.691407,0.3867188 v 5.5078125 h -0.691407 v 0.46875 c 0.316407,-0.01171875 0.796875,-0.03515625 1.230469,-0.03515625 0.421875,0 0.878906,0.0234375 1.21875,0.03515625 v -0.46875 h -0.691406 z m 4.68164,6.15234375 c 0,0.3046875 0,0.76171875 1.03125,0.76171875 h 0.480469 c 0.199219,0 0.316406,0 0.316406,-0.234375 0,-0.234375 -0.128906,-0.234375 -0.257812,-0.234375 -0.609375,-0.0117188 -0.609375,-0.140625 -0.609375,-0.36328125 V -2.97525 c 0,-0.890625 -0.703125,-1.5351563 -2.191406,-1.5351563 -0.5625,0 -1.78125,0.035156 -1.78125,0.9140625 0,0.4453125 0.351562,0.6328125 0.621093,0.6328125 0.304688,0 0.621094,-0.2109375 0.621094,-0.6328125 0,-0.2929687 -0.1875,-0.46875 -0.210937,-0.4921875 0.28125,-0.058594 0.597656,-0.058594 0.714843,-0.058594 0.75,0 1.089844,0.4101562 1.089844,1.171875 v 0.3398437 c -0.703125,0.023437 -3.234375,0.1171875 -3.234375,1.5585938 0,0.9609375 1.242188,1.13671875 1.921875,1.13671875 0.796875,0 1.265625,-0.41015625 1.488281,-0.8203122 z M 31.036617,-2.3307188 V -1.3815 c 0,0.94921875 -0.914062,1.078125 -1.160156,1.078125 -0.503906,0 -0.902344,-0.33984375 -0.902344,-0.7851563 0,-1.0664062 1.570313,-1.2070312 2.0625,-1.2421875 z m 4.209961,-0.9492187 c 0,-0.1875 0.01172,-0.1992188 0.152344,-0.3398438 0.398437,-0.3984375 0.914062,-0.46875 1.136719,-0.46875 0.667968,0 1.21875,0.609375 1.21875,1.8632813 0,1.40625 -0.691407,1.921875 -1.347657,1.921875 -0.128906,0 -0.597656,0 -1.054687,-0.52734375 -0.105469,-0.12890625 -0.105469,-0.140625 -0.105469,-0.32812505 z m 0,2.89453125 c 0.433594,0.3515625 0.867188,0.4453125 1.277344,0.4453125 1.488281,0 2.507812,-0.890625 2.507812,-2.28515625 0,-1.3242188 -0.902343,-2.2617188 -2.34375,-2.2617188 -0.738281,0 -1.277343,0.3164063 -1.5,0.4921875 v -0.4921875 l -1.769531,0.082031 v 0.46875 c 0.621094,0 0.691406,0 0.691406,0.3867187 v 5.015625 h -0.691406 v 0.46875 c 0.28125,-0.011719 0.878906,-0.035156 1.265625,-0.035156 0.386719,0 0.972656,0.023437 1.253906,0.035156 v -0.46875 h -0.691406 z m 0,0"
       style="fill:#000000;fill-opacity:1;fill-rule:nonzero;stroke:none"
       aria-label="Overlap"
       transform="matrix(1.3333333,0,0,1.3333333,427.528,26.092)" />
    <path
       id="path15"
       d="M 28.3468,0 C 28.3468,15.6557 15.6557,28.3468 0,28.3468 -15.6557,28.3468 -28.3468,15.6557 -28.3468,0 c 0,-15.6557 12.6911,-28.3468 28.3468,-28.3468 15.6557,0 28.3468,12.6911 28.3468,28.3468 z"
       style="fill:none;stroke:#b3b3b3;stroke-width:0.3985;stroke-linecap:butt;stroke-linejoin:miter;stroke-miterlimit:10;stroke-dasharray:none;stroke-opacity:1"
       transform="matrix(1.3333333,0,0,-1.3333333,38.061333,189.24133)" />
    <path
       id="path16"
       d="m 368.50851,70.867 c 0,15.65572 -12.69108,28.34682 -28.3468,28.34682 -15.65571,0 -28.34681,-12.6911 -28.34681,-28.34682 0,-15.6557 12.6911,-28.3468 28.34681,-28.3468 15.65572,0 28.3468,12.6911 28.3468,28.3468 z"
       style="fill:none;stroke:#000000;stroke-width:0.3985;stroke-linecap:butt;stroke-linejoin:miter;stroke-miterlimit:10;stroke-dasharray:none;stroke-opacity:1"
       transform="matrix(1.3333333,0,0,-1.3333333,38.061333,189.24133)" />
    <path
       id="path17"
       d="M 2.2136719,-3.6445313 V -6.09375 c 0,-0.328125 0.011719,-0.3984375 0.4804687,-0.3984375 h 1.2421875 c 0.9609375,0 1.3125,0.84375 1.3125,1.3710938 0,0.6328125 -0.4921875,1.4765624 -1.59375,1.4765624 z m 2.34375,0.09375 C 5.5300781,-3.75 6.2097656,-4.3828125 6.2097656,-5.1210937 c 0,-0.8671875 -0.9140625,-1.6875 -2.203125,-1.6875 H 0.36210938 v 0.3164062 h 0.234375 c 0.76171872,0 0.78515622,0.1054688 0.78515622,0.46875 v 5.25 c 0,0.3515625 -0.023437,0.46875 -0.78515622,0.46875 h -0.234375 V 0 H 4.2644531 c 1.3242188,0 2.2148438,-0.890625 2.2148438,-1.828125 0,-0.8671875 -0.8085938,-1.6054688 -1.921875,-1.7226563 z m -0.609375,3.2460938 H 2.6941406 c -0.46875,0 -0.4804687,-0.0703125 -0.4804687,-0.3984375 v -2.71875 h 1.875 c 0.984375,0 1.3945312,0.9257812 1.3945312,1.59375 0,0.703125 -0.515625,1.5234375 -1.5351562,1.5234375 z m 0,0"
       style="fill:#000000;fill-opacity:1;fill-rule:nonzero;stroke:none"
       aria-label="B"
       transform="matrix(1.3333333,0,0,1.3333333,486.9,52)" />
    <g
       id="g17"
       aria-label="A∩B"
       transform="matrix(1.3333333,0,0,1.3333333,435.22133,160.95867)">
      <path
         id="path18"
         d="m 4.7236484,-6.6926328 c -0.1054687,-0.2578125 -0.234375,-0.2578125 -0.3984375,-0.2578125 -0.28125,0 -0.3164062,0.070312 -0.3867187,0.2578125 l -2.4726563,5.98828124 c -0.058594,0.15234375 -0.09375,0.234375 -0.84374996,0.234375 h -0.2109375 v 0.46875 c 0.375,-0.01171875 0.85546876,-0.03515625 1.16015626,-0.03515625 0.3867187,0 0.9492187,0 1.3242187,0.03515625 v -0.46875 c -0.023437,0 -0.890625,0 -0.890625,-0.12890625 0,-0.0117188 0.023437,-0.10546875 0.035156,-0.1171875 L 2.5439609,-1.9231016 h 2.671875 l 0.5976563,1.45312504 H 4.8642734 v 0.46875 c 0.375,-0.03515625 1.3242188,-0.03515625 1.7460938,-0.03515625 0.3984375,0 1.2773437,0 1.6289062,0.03515625 v -0.46875 H 7.2783359 Z m -0.84375,1.5351562 1.1367188,2.765625 H 2.7431797 Z m 0,0"
         style="fill:#000000;fill-opacity:1;fill-rule:nonzero;stroke:none" />
      <path
         id="path19"
         d="m 16.955094,-3.7863828 c 0,-1.5117188 -1.523438,-2.1679688 -2.765625,-2.1679688 -1.289063,0 -2.765625,0.6914063 -2.765625,2.15625 v 3.65625004 c 0,0.17578125 0,0.36328125 0.199219,0.36328125 0.199218,0 0.199218,-0.1875 0.199218,-0.36328125 V -3.7512266 c 0,-1.4882812 1.617188,-1.8046875 2.367188,-1.8046875 0.445312,0 1.078125,0.082031 1.605469,0.421875 0.761718,0.4921875 0.761718,1.125 0.761718,1.3945313 v 3.59765624 c 0,0.17578125 0,0.36328125 0.199219,0.36328125 0.199219,0 0.199219,-0.1875 0.199219,-0.36328125 z m 0,0"
         style="fill:#000000;fill-opacity:1;fill-rule:nonzero;stroke:none" />
      <path
         id="path20"
         d="m 22.492203,-3.7395078 v -2.625 h 1.816406 c 1.007813,0 1.183594,0.7851562 1.183594,1.2421875 0,0.7734375 -0.480469,1.3828125 -1.441406,1.3828125 z m 2.695313,0.1757812 c 1.078125,-0.1875 1.722656,-0.7851562 1.722656,-1.5585937 0,-0.9140625 -0.867188,-1.7109375 -2.472656,-1.7109375 h -4.324219 v 0.46875 h 1.078125 v 5.89453124 h -1.078125 v 0.46875 h 4.628906 c 1.652344,0 2.484375,-0.87890625 2.484375,-1.85156254 0,-0.9609375 -0.855469,-1.6289062 -2.039062,-1.7109375 z m -0.855469,3.09375004 H 22.492203 V -3.3762266 h 1.933594 c 0.199219,0 0.667969,0 1.007812,0.421875 0.328125,0.421875 0.328125,0.984375 0.328125,1.0898438 0,0.1171875 0,1.39453124 -1.429687,1.39453124 z m 0,0"
         style="fill:#000000;fill-opacity:1;fill-rule:nonzero;stroke:none" />
    </g>
  </g>
</svg>
