<?xml version="1.0" encoding="UTF-8" standalone="no"?>
<!-- Created with Inkscape (http://www.inkscape.org/) -->

<svg
   version="1.1"
   id="svg1"
   width="567.18854"
   height="151.43536"
   viewBox="0 0 567.18854 151.43536"
   xmlns="http://www.w3.org/2000/svg"
   xmlns:svg="http://www.w3.org/2000/svg">
  <defs
     id="defs1" />
  <g
     id="g1"
     transform="translate(-5.000015e-4,-0.01080712)">
    <path
       id="path1"
       d="m 85.04042,56.69362 c 0,15.6557 -12.6911,28.3468 -28.3468,28.3468 -15.65572,0 -28.34682,-12.6911 -28.34682,-28.3468 0,-15.65572 12.6911,-28.34682 28.34682,-28.34682 15.6557,0 28.3468,12.6911 28.3468,28.34682 z"
       style="fill:#fff200;fill-opacity:1;fill-rule:nonzero;stroke:#000000;stroke-width:0.79701;stroke-linecap:butt;stroke-linejoin:miter;stroke-miterlimit:10;stroke-dasharray:none;stroke-opacity:1"
       transform="matrix(1.3333333,0,0,-1.3333333,0.13333333,151.31333)" />
    <path
       id="path2"
       d="m 3.9622813,-6.9374531 c -0.046875,-0.1289063 -0.070312,-0.1992188 -0.2226563,-0.1992188 -0.1640625,0 -0.1875,0.058594 -0.2460937,0.1992188 l -2.0625,5.96484373 C 1.25525,-0.46870312 0.8568125,-0.31635937 0.31775,-0.30464062 V 4.6875e-5 C 0.552125,-0.01167187 0.974,-0.03510937 1.3372813,-0.03510937 c 0.3046875,0 0.8203125,0.0234375 1.1484375,0.035156245 V -0.30464062 c -0.5039063,0 -0.75,-0.2578125 -0.75,-0.515625 0,-0.0234375 0.011719,-0.12890625 0.023437,-0.140625 L 2.2161875,-2.2733906 H 4.677125 l 0.5273438,1.52343748 c 0.011719,0.046875 0.023437,0.10546875 0.023437,0.140625 0,0.3046875 -0.5507813,0.3046875 -0.8203125,0.3046875 V 4.6875e-5 c 0.351563,-0.035156245 1.054688,-0.035156245 1.429688,-0.035156245 0.4335937,0 0.890625,0.01171875 1.3007812,0.035156245 V -0.30464062 H 6.9622813 c -0.5976563,0 -0.7382813,-0.0703125 -0.84375,-0.3984375 z m -0.5273438,1.125 1.125,3.234375 H 2.3216563 Z m 0,0"
       style="fill:#000000;fill-opacity:1;fill-rule:nonzero;stroke:none"
       aria-label="A"
       transform="matrix(1.3333333,0,0,1.3333333,33.701333,43.664)" />
    <path
       id="path3"
       d="M 0,0 H 425.20213 M 0,28.3468 H 425.20213 M 0,56.69362 H 425.20213 M 0,85.04042 H 425.20213 M 0,113.37727 H 425.20213 M 0,0 V 113.38724 M 28.3468,0 V 113.38724 M 56.69362,0 V 113.38724 M 85.04042,0 V 113.38724 M 113.38724,0 V 113.38724 M 141.73404,0 V 113.38724 M 170.08086,0 V 113.38724 M 198.42766,0 V 113.38724 M 226.77448,0 V 113.38724 M 255.12128,0 V 113.38724 M 283.4681,0 V 113.38724 M 311.8149,0 V 113.38724 M 340.16171,0 V 113.38724 M 368.50851,0 V 113.38724 M 396.85533,0 V 113.38724 M 425.19218,0 v 113.38724"
       style="fill:none;stroke:#808080;stroke-width:0.19925;stroke-linecap:butt;stroke-linejoin:miter;stroke-miterlimit:10;stroke-dasharray:none;stroke-opacity:1"
       transform="matrix(1.3333333,0,0,-1.3333333,0.13333333,151.31333)" />
  </g>
</svg>
