<?xml version="1.0" encoding="UTF-8" standalone="no"?>
<!-- Created with Inkscape (http://www.inkscape.org/) -->

<svg
   version="1.1"
   id="svg1"
   width="79.350533"
   height="79.372787"
   viewBox="0 0 79.350533 79.372788"
   xmlns="http://www.w3.org/2000/svg"
   xmlns:svg="http://www.w3.org/2000/svg">
  <defs
     id="defs1" />
  <g
     id="g1"
     transform="translate(-4.8945313,-3.9882811)">
    <path
       id="path1"
       d="M 28.3468,0 C 28.3468,15.6557 15.6557,28.3468 0,28.3468 -15.6557,28.3468 -28.3468,15.6557 -28.3468,0 c 0,-15.6557 12.6911,-28.3468 28.3468,-28.3468 15.6557,0 28.3468,12.6911 28.3468,28.3468 z"
       style="fill:#9999ff;fill-opacity:1;fill-rule:nonzero;stroke:none"
       transform="matrix(1.3333333,0,0,-1.3333333,46.449333,45.565333)" />
    <path
       id="path2"
       d="m 1.7805859,-1.1495078 c -0.3984375,0.66796874 -0.78515621,0.80859374 -1.21874996,0.84374999 -0.12890625,0 -0.2109375,0 -0.2109375,0.19921875 0,0.05859375 0.046875,0.10546875 0.12890625,0.10546875 0.26953125,0 0.57421871,-0.03515625 0.85546871,-0.03515625 0.328125,0 0.6796875,0.03515625 0.9960938,0.03515625 0.058594,0 0.1875,0 0.1875,-0.1875 0,-0.1171875 -0.09375,-0.1171875 -0.1640625,-0.1171875 -0.2226563,-0.0234375 -0.4570313,-0.10546875 -0.4570313,-0.3515625 0,-0.1171875 0.058594,-0.234375 0.1289063,-0.37499999 l 0.7617187,-1.265625 h 2.4960938 c 0.023437,0.1992187 0.1640625,1.55859374 0.1640625,1.66406249 0,0.29296875 -0.515625,0.328125 -0.7148438,0.328125 -0.140625,0 -0.2460937,0 -0.2460937,0.19921875 0,0.10546875 0.1289062,0.10546875 0.140625,0.10546875 0.4101562,0 0.84375,-0.03515625 1.2539062,-0.03515625 0.2460938,0 0.8671875,0.03515625 1.125,0.03515625 0.058594,0 0.1757813,0 0.1757813,-0.19921875 0,-0.10546875 -0.1054688,-0.10546875 -0.234375,-0.10546875 -0.609375,0 -0.609375,-0.0703125 -0.6445313,-0.36328125 L 5.6946484,-6.8916953 c -0.011719,-0.1992188 -0.011719,-0.2460938 -0.1875,-0.2460938 -0.1640625,0 -0.1992187,0.070312 -0.2578125,0.1757813 z m 1.1953125,-1.4648438 1.96875,-3.28125 0.3164063,3.28125 z m 0,0"
       style="fill:#000000;fill-opacity:1;fill-rule:nonzero;stroke:none"
       aria-label="A"
       transform="matrix(1.3333333,0,0,1.3333333,4.4266667,13.505333)" />
  </g>
</svg>
