<?xml version="1.0" encoding="UTF-8" standalone="no"?>
<!-- Created with Inkscape (http://www.inkscape.org/) -->

<svg
   version="1.1"
   id="svg1"
   width="114.44993"
   height="114.44993"
   viewBox="0 0 114.44993 114.44993"
   xmlns="http://www.w3.org/2000/svg"
   xmlns:svg="http://www.w3.org/2000/svg">
  <defs
     id="defs1" />
  <g
     id="g1"
     transform="translate(9.6523906e-4,9.6523906e-4)">
    <path
       id="path1"
       d="M 28.3468,0 C 28.3468,15.6557 15.6557,28.3468 0,28.3468 -15.6557,28.3468 -28.3468,15.6557 -28.3468,0 c 0,-15.6557 12.6911,-28.3468 28.3468,-28.3468 15.6557,0 28.3468,12.6911 28.3468,28.3468 z"
       style="fill:#9999ff;fill-opacity:1;fill-rule:nonzero;stroke:none"
       transform="matrix(1.3333333,0,0,-1.3333333,57.224,57.224)" />
    <path
       id="path2"
       d="m 1.7825938,-1.1483906 c -0.3984375,0.66796872 -0.7851563,0.80859372 -1.21875005,0.84374997 -0.12890625,0 -0.2109375,0 -0.2109375,0.19921875 0,0.05859375 0.046875,0.105468755 0.12890625,0.105468755 0.26953125,0 0.5742188,-0.035156255 0.8554688,-0.035156255 0.328125,0 0.6796875,0.035156255 0.9960937,0.035156255 0.058594,0 0.1875,0 0.1875,-0.187500005 0,-0.1171875 -0.09375,-0.1171875 -0.1640625,-0.1171875 -0.2226562,-0.0234375 -0.4570312,-0.10546875 -0.4570312,-0.3515625 0,-0.1171875 0.058594,-0.234375 0.1289062,-0.37499997 l 0.7617188,-1.265625 H 5.2865 c 0.023437,0.1992187 0.1640625,1.55859372 0.1640625,1.66406247 0,0.29296875 -0.515625,0.328125 -0.7148437,0.328125 -0.140625,0 -0.2460938,0 -0.2460938,0.19921875 0,0.105468755 0.1289063,0.105468755 0.140625,0.105468755 0.4101563,0 0.84375,-0.035156255 1.2539063,-0.035156255 0.2460937,0 0.8671875,0.035156255 1.125,0.035156255 0.058594,0 0.1757812,0 0.1757812,-0.199218755 0,-0.10546875 -0.1054687,-0.10546875 -0.234375,-0.10546875 -0.609375,0 -0.609375,-0.0703125 -0.6445312,-0.36328125 L 5.6966563,-6.8905781 c -0.011719,-0.1992188 -0.011719,-0.2460938 -0.1875,-0.2460938 -0.1640625,0 -0.1992188,0.070312 -0.2578125,0.1757813 z m 1.1953125,-1.4648438 1.96875,-3.28125 0.3164062,3.28125 z m 0,0"
       style="fill:#000000;fill-opacity:1;fill-rule:nonzero;stroke:none"
       aria-label="A"
       transform="matrix(1.3333333,0,0,1.3333333,15.201333,25.164)" />
    <path
       id="path3"
       d="M 42.52022,0 C 42.52022,23.48355 23.48355,42.52022 0,42.52022 -23.48355,42.52022 -42.52022,23.48355 -42.52022,0 c 0,-23.48355 19.03667,-42.52022 42.52022,-42.52022 23.48355,0 42.52022,19.03667 42.52022,42.52022 z"
       style="fill:none;stroke:#000000;stroke-width:0.79701;stroke-linecap:butt;stroke-linejoin:miter;stroke-miterlimit:10;stroke-dasharray:none;stroke-opacity:1"
       transform="matrix(1.3333333,0,0,-1.3333333,57.224,57.224)" />
  </g>
</svg>
